<svg xmlns="http://www.w3.org/2000/svg" width="88" height="88"
    viewBox="0 0 88 88">
    <g fill="var(--brand" stroke="#fff" stroke-width="2">
        <circle cx="44" cy="44" r="44" stroke="none" />
        <circle cx="44" cy="44" r="43" fill="none" />
    </g>
    <rect width="40" height="40" transform="translate(24 24)" fill="#fff"
        opacity="0" />
    <g transform="translate(29 25)">
        <path
            d="M104.106,45.025l1.274,1.911a.637.637,0,0,0,.815.216l1.14-.57H113.9a2.532,2.532,0,0,0-.343,1.274v1.274a.637.637,0,0,0-.637.637v.973a3.186,3.186,0,1,0,6.371,0v-.973a.637.637,0,0,0-.637-.637V47.857a2.532,2.532,0,0,0-.343-1.274h6.564l1.14.57a.637.637,0,0,0,.815-.216l1.274-1.911a.637.637,0,0,0-.177-.884l-1.911-1.274a.637.637,0,0,0-.353-.107h-6.371V33.2h.3a5.788,5.788,0,0,1,4.323,1.941,5.335,5.335,0,0,0,3.73,1.8q.147.008.293.008a5.331,5.331,0,0,0,3.607-1.4,5.392,5.392,0,0,0,.4-7.545l-3.777-4.249a5.145,5.145,0,0,1-.107-6.711.637.637,0,1,0-.979-.816,6.419,6.419,0,0,0,.134,8.373L131,28.851a4.1,4.1,0,1,1-6.126,5.446,7.064,7.064,0,0,0-5.275-2.369h-.3V30.21l1.167-1.751a.637.637,0,0,0,.107-.353V26.831a.637.637,0,0,0-.637-.637H117.38a.637.637,0,0,0-.451.187l-.824.824-.824-.824a.637.637,0,0,0-.451-.187h-2.549a.637.637,0,0,0-.637.637v1.274a.637.637,0,0,0,.107.353l1.167,1.751V42.76h-6.372a.637.637,0,0,0-.353.107l-1.911,1.274A.637.637,0,0,0,104.106,45.025Zm17.733-.991h3.63l1.221.814-.609.913-.771-.386a.637.637,0,0,0-.285-.067H121.84Zm-3.823,6.708a1.911,1.911,0,1,1-3.823,0v-.336h3.823Zm-3.186-1.611V47.857a1.274,1.274,0,1,1,2.549,0v1.274Zm3.186-3.823h-3.823v-5.1h3.823ZM115.468,33.2v1.274h-1.274V33.2Zm-1.274-1.274V30.654h1.274v1.274Zm1.274,3.823v1.01l-1.274,1.274V35.751Zm5.1,8.283v1.274h-1.274V44.034Zm-3.823-15.665.9-.9h1.648v.444l-.978,1.467h-1.57Zm0,2.285h1.274v1.274h-1.274Zm0,2.549h1.274v1.274h-1.274Zm0,2.549h1.274v2.285l-1.274-1.274Zm.373,3.186h-2.021l1.01-1.01Zm-4.2-11.469h1.648l.9.9v1.01H113.9l-.978-1.467Zm-1.274,16.566h1.274v1.274h-1.274Zm-4.9,0h3.63v1.274h-3.186a.637.637,0,0,0-.285.067l-.771.386-.609-.913Z"
            transform="translate(-103.999 -15.999)" fill="#fff" />
        <path
            d="M320.888,185.274a3.648,3.648,0,0,1,3.042,1.628.637.637,0,1,0,1.06-.707,4.92,4.92,0,0,0-4.1-2.2h-.251a.637.637,0,1,0,0,1.274Z"
            transform="translate(-302.797 -170.62)" fill="#fff" />
        <path
            d="M411.582,40.106a.637.637,0,0,0-.884.177,3.449,3.449,0,0,0,.43,4.34l.287.287a.637.637,0,1,0,.9-.9l-.287-.287a2.171,2.171,0,0,1-.271-2.732A.637.637,0,0,0,411.582,40.106Z"
            transform="translate(-385.743 -38.088)" fill="#fff" />
        <path
            d="M440.824,113.725a.637.637,0,1,0,.9-.9l-.637-.637a.637.637,0,0,0-.9.9Z"
            transform="translate(-413.239 -104.354)" fill="#fff" />
        <path
            d="M153.274,281.911v-1.274a.637.637,0,1,0-1.274,0v1.274a.637.637,0,0,0,1.274,0Z"
            transform="translate(-148.177 -258.974)" fill="#fff" />
        <path
            d="M120,298.549a.637.637,0,1,0,1.274,0v-1.911a.637.637,0,0,0-1.274,0Z"
            transform="translate(-118.726 -273.7)" fill="#fff" />
        <path
            d="M352,304.637v1.274a.637.637,0,1,0,1.274,0v-1.274a.637.637,0,1,0-1.274,0Z"
            transform="translate(-332.248 -281.063)" fill="#fff" />
        <path
            d="M320,280.637v2.549a.637.637,0,1,0,1.274,0v-2.549a.637.637,0,1,0-1.274,0Z"
            transform="translate(-302.797 -258.974)" fill="#fff" />
        <path
            d="M120.637,250.549a.637.637,0,0,0,.637-.637v-1.274a.637.637,0,1,0-1.274,0v1.274A.637.637,0,0,0,120.637,250.549Z"
            transform="translate(-118.726 -229.523)" fill="#fff" />
    </g>
</svg>