<svg xmlns="http://www.w3.org/2000/svg" width="88" height="88" viewBox="0 0 88 88"><rect width="40" height="40" transform="translate(24 24)" fill="#fff" opacity="0"/><g fill="none" stroke="#fff" stroke-width="2"><circle cx="44" cy="44" r="44" stroke="none"/><circle cx="44" cy="44" r="43" fill="none"/></g><g transform="translate(28.999 26)"><path d="M72.048,8.407,70,7.62V4.129a.541.541,0,0,0-.541-.541H68.21V.541a.541.541,0,0,0-1.083,0V3.587H65.875a.541.541,0,0,0-.541.541v1.7L56.5,2.428a.541.541,0,0,0-.736.505V7.175h-3.7V5.325a.541.541,0,0,0-1.083,0v1.85H49.205a.541.541,0,1,0,0,1.083h8.953V9.566H44.891V8.258H47.04a.541.541,0,0,0,0-1.083H44.35a.541.541,0,0,0-.541.541v2.392a.541.541,0,0,0,.541.541H45v2.5H41.958a.541.541,0,0,0-.541.541v2.392a.541.541,0,0,0,.541.541h.654V36.415a.541.541,0,0,0,.541.541h28.7a.541.541,0,0,0,.541-.541V8.912A.541.541,0,0,0,72.048,8.407ZM66.416,4.67h2.5V7.2l-2.5-.963Zm4.9,4.614v1.231L56.849,4.953V3.721ZM46.087,10.649H56.962v2.5H46.087ZM42.5,14.237H60.55v1.309H42.5Zm7.288,4.783V35.874H48.479V19.02Zm1.083,0h1.309V35.874H50.87Zm2.392,0h1.309V35.874H53.262Zm2.392,0h1.309V35.874H55.653Zm2.392,0h1.309V35.874H58.045Zm1.309-1.083H43.7V16.628H59.354ZM46.087,19.02H47.4V35.874H46.087Zm-2.392,0H45V35.874H43.7ZM60.437,35.874V16.628h.654a.541.541,0,0,0,.541-.541V13.7a.541.541,0,0,0-.541-.541H58.045v-2.5H58.7a.541.541,0,0,0,.541-.541V7.716a.541.541,0,0,0-.541-.541h-1.85V6.113l14.463,5.563v24.2Z" transform="translate(-41.417)" fill="#fff"/><path d="M359.116,165.667h-2.391a.541.541,0,0,0-.541.541V168.6a.541.541,0,0,0,.541.541h2.391a.541.541,0,0,0,.541-.541v-2.391A.541.541,0,0,0,359.116,165.667Zm-.541,2.391h-1.309V166.75h1.309Z" transform="translate(-333.463 -153.709)" fill="#fff"/><path d="M359.116,248.5h-2.391a.541.541,0,0,0-.541.541v2.392a.541.541,0,0,0,.541.541h2.391a.541.541,0,0,0,.541-.541V249.04A.541.541,0,0,0,359.116,248.5Zm-.541,2.392h-1.309v-1.309h1.309Z" transform="translate(-333.463 -230.562)" fill="#fff"/><path d="M359.116,331.333h-2.391a.541.541,0,0,0-.541.541v2.391a.541.541,0,0,0,.541.541h2.391a.541.541,0,0,0,.541-.541v-2.391A.541.541,0,0,0,359.116,331.333Zm-.541,2.392h-1.309v-1.309h1.309Z" transform="translate(-333.463 -307.417)" fill="#fff"/><path d="M359.116,414.167h-2.391a.541.541,0,0,0-.541.541V417.1a.541.541,0,0,0,.541.541h2.391a.541.541,0,0,0,.541-.541v-2.391A.541.541,0,0,0,359.116,414.167Zm-.541,2.391h-1.309V415.25h1.309Z" transform="translate(-333.463 -384.272)" fill="#fff"/></g></svg>