<?xml version="1.0" encoding="UTF-8"?>
<svg width="100pt" height="100pt" version="1.1" viewBox="0 0 100 100" xmlns="http://www.w3.org/2000/svg">
 <path d="m74.75 25.25c-0.39062-0.39062-1.0234-0.39062-1.4141 0l-23.336 23.336-23.336-23.336c-0.39062-0.39062-1.0234-0.39062-1.4141 0s-0.39062 1.0234 0 1.4141l23.336 23.336-23.336 23.336c-0.39062 0.39062-0.39062 1.0234 0 1.4141s1.0234 0.39062 1.4141 0l23.336-23.336 23.336 23.336c0.39062 0.39062 1.0234 0.39062 1.4141 0s0.39062-1.0234 0-1.4141l-23.336-23.336 23.336-23.336c0.39062-0.39062 0.39062-1.0234 0-1.4141z"/>
</svg>
