<svg width="24" height="24" viewBox="0 0 24 24" fill="none" xmlns="http://www.w3.org/2000/svg">
<path d="M13.875 7.5H2.8125C1.26169 7.5 0 8.76169 0 10.3125V21.1875C0 22.7383 1.26169 24 2.8125 24H13.875C15.4258 24 16.6875 22.7383 16.6875 21.1875V10.3125C16.6875 8.76169 15.4258 7.5 13.875 7.5ZM14.8125 21.1875C14.8125 21.7044 14.3919 22.125 13.875 22.125H2.8125C2.29556 22.125 1.875 21.7044 1.875 21.1875V10.3125C1.875 9.79556 2.29556 9.375 2.8125 9.375H13.875C14.3919 9.375 14.8125 9.79556 14.8125 10.3125V21.1875ZM21.1875 0H10.125C8.57419 0 7.3125 1.26169 7.3125 2.8125V5.625H9.1875V2.8125C9.1875 2.29556 9.60806 1.875 10.125 1.875H21.1875C21.7044 1.875 22.125 2.29556 22.125 2.8125V13.6875C22.125 14.2044 21.7044 14.625 21.1875 14.625H18.5625V16.5H21.1875C22.7383 16.5 24 15.2383 24 13.6875V2.8125C24 1.26169 22.7383 0 21.1875 0Z" fill="#4A7AFF"/>
</svg>
