<svg width="24" height="25" viewBox="0 0 24 25" fill="none" xmlns="http://www.w3.org/2000/svg">
    <path d="M12 .013c-2.373 0-4.693.706-6.667 2.029a12.03 12.03 0 0 0-4.42 5.402A12.074 12.074 0 0 0 .231 14.4a12.05 12.05 0 0 0 3.284 6.164 11.988 11.988 0 0 0 6.144 3.295c2.328.464 4.74.226 6.933-.685a12.009 12.009 0 0 0 5.386-4.434 12.066 12.066 0 0 0-1.493-15.2A11.98 11.98 0 0 0 12 .013zm0 22.471c-2.057 0-4.068-.612-5.778-1.758a10.426 10.426 0 0 1-3.83-4.682 10.464 10.464 0 0 1 2.254-11.37A10.37 10.37 0 0 1 15.98 2.412c1.9.79 3.524 2.127 4.667 3.843a10.457 10.457 0 0 1-1.293 13.173A10.383 10.383 0 0 1 12 22.484z" fill="#28B0A6"/>
    <path d="M12.8 4.025a.804.804 0 0 0-.8-.802.799.799 0 0 0-.8.802v8.026a.804.804 0 0 0 .8.802h8a.799.799 0 0 0 .8-.802.804.804 0 0 0-.8-.803h-7.2V4.025z" fill="#28B0A6"/>
</svg>
