<svg width="23" height="23" viewBox="0 0 23 23" fill="none" xmlns="http://www.w3.org/2000/svg">
<path fill-rule="evenodd" clip-rule="evenodd" d="M2.06235 6.10839L11.1278 14.0418L20.1932 6.10839L11.1278 1.57567L2.06235 6.10839ZM14.5908 12.9824L20.7719 19.6309V7.57132L14.5908 12.9824ZM1.48371 7.57132V19.6279L7.66482 12.9794L1.48371 7.57132ZM19.8119 20.7763L13.4735 13.9602L11.6159 15.5833C11.4807 15.7015 11.3073 15.7666 11.1278 15.7666C10.9483 15.7666 10.7748 15.7015 10.6396 15.5833L8.78205 13.9513L2.44366 20.7763H19.8119ZM0.418404 5.27158C0.292994 5.33234 0.187233 5.42719 0.113234 5.54527C0.039236 5.66336 -7.43124e-06 5.79989 1.05551e-09 5.93925V21.5181C1.05551e-09 21.7149 0.0781587 21.9036 0.217283 22.0427C0.356407 22.1818 0.545101 22.26 0.741853 22.26H21.5137C21.7105 22.26 21.8992 22.1818 22.0383 22.0427C22.1774 21.9036 22.2556 21.7149 22.2556 21.5181V5.93925C22.2556 5.79989 22.2163 5.66336 22.1423 5.54527C22.0683 5.42719 21.9626 5.33234 21.8372 5.27158L11.4601 0.0786116C11.357 0.0269171 11.2432 0 11.1278 0C11.0124 0 10.8986 0.0269171 10.7954 0.0786116L0.418404 5.27158Z" fill="white"/>
</svg>
