<svg width="135" height="32" viewBox="0 0 135 32" fill="none" xmlns="http://www.w3.org/2000/svg">
<path d="M21.2723 16.778C21.2723 15.4475 21.4856 14.1959 21.912 13.0233C22.3385 11.8506 22.9446 10.8245 23.7302 9.94503C24.5158 9.06554 25.4698 8.37773 26.5922 7.88161C27.7145 7.36293 28.9715 7.10359 30.3632 7.10359C31.6875 7.10359 32.9109 7.38548 34.0332 7.94926C35.178 8.49049 36.1432 9.23467 36.9288 10.1818C37.7144 9.23467 38.6684 8.49049 39.7907 7.94926C40.9355 7.38548 42.1701 7.10359 43.4944 7.10359C44.8861 7.10359 46.1431 7.36293 47.2654 7.88161C48.3877 8.37773 49.3417 9.06554 50.1274 9.94503C50.913 10.8245 51.519 11.8506 51.9455 13.0233C52.372 14.1959 52.5852 15.4475 52.5852 16.778V25.9112H47.5348V16.778C47.5348 16.0789 47.4562 15.4249 47.2991 14.8161C47.142 14.1846 46.895 13.6434 46.5583 13.1924C46.2216 12.7414 45.7952 12.3805 45.2789 12.1099C44.7851 11.8393 44.1902 11.704 43.4944 11.704C42.7986 11.704 42.1925 11.8393 41.6762 12.1099C41.1824 12.3805 40.7671 12.7414 40.4304 13.1924C40.0937 13.6434 39.8468 14.1846 39.6897 14.8161C39.5326 15.4249 39.454 16.0789 39.454 16.778V25.9112H34.4035V16.778C34.4035 16.0789 34.325 15.4249 34.1679 14.8161C34.0107 14.1846 33.7638 13.6434 33.4271 13.1924C33.0904 12.7414 32.6639 12.3805 32.1477 12.1099C31.6538 11.8393 31.059 11.704 30.3632 11.704C29.6673 11.704 29.0613 11.8393 28.545 12.1099C28.0512 12.3805 27.6359 12.7414 27.2992 13.1924C26.9625 13.6434 26.7156 14.1846 26.5585 14.8161C26.4014 15.4249 26.3228 16.0789 26.3228 16.778V25.9112H21.2723V16.778Z" fill="#1D293F"/>
<path d="M65.5997 7.10359C66.9914 7.10359 68.2933 7.36293 69.5054 7.88161C70.7175 8.37773 71.7725 9.06554 72.6703 9.94503C73.5682 10.8245 74.2753 11.8506 74.7915 13.0233C75.3302 14.1959 75.5996 15.4475 75.5996 16.778C75.5996 18.1085 75.3302 19.3601 74.7915 20.5328C74.2753 21.7054 73.5682 22.7315 72.6703 23.611C71.7725 24.4905 70.7175 25.1896 69.5054 25.7082C68.2933 26.2044 66.9914 26.4524 65.5997 26.4524C64.6345 26.4524 63.7254 26.272 62.8724 25.9112C62.0419 25.5504 61.3012 25.0543 60.6502 24.4228V32H55.5997V16.778C55.5997 15.4475 55.8579 14.1959 56.3742 13.0233C56.9129 11.8506 57.6312 10.8245 58.529 9.94503C59.4269 9.06554 60.4819 8.37773 61.694 7.88161C62.9285 7.36293 64.2304 7.10359 65.5997 7.10359ZM65.4987 21.852C66.1945 21.852 66.8455 21.7167 67.4515 21.4461C68.08 21.1755 68.6187 20.8147 69.0677 20.3636C69.5166 19.9126 69.8757 19.3827 70.1451 18.7738C70.4145 18.1424 70.5491 17.4771 70.5491 16.778C70.5491 16.0789 70.4145 15.4249 70.1451 14.8161C69.8757 14.1846 69.5166 13.6434 69.0677 13.1924C68.6187 12.7414 68.08 12.3805 67.4515 12.1099C66.8455 11.8393 66.1945 11.704 65.4987 11.704C64.8028 11.704 64.1407 11.8393 63.5121 12.1099C62.9061 12.3805 62.3786 12.7414 61.9297 13.1924C61.4807 13.6434 61.1216 14.1846 60.8522 14.8161C60.5829 15.4249 60.4482 16.0789 60.4482 16.778C60.4482 17.4771 60.5829 18.1424 60.8522 18.7738C61.1216 19.3827 61.4807 19.9126 61.9297 20.3636C62.3786 20.8147 62.9061 21.1755 63.5121 21.4461C64.1407 21.7167 64.8028 21.852 65.4987 21.852Z" fill="#1D293F"/>
<path d="M77.7942 16.778C77.7942 15.4475 78.0187 14.1959 78.4676 13.0233C78.939 11.8506 79.5899 10.8245 80.4204 9.94503C81.251 9.06554 82.2386 8.37773 83.3834 7.88161C84.5506 7.36293 85.8301 7.10359 87.2217 7.10359H87.8951V11.704C87.1993 11.704 86.5371 11.8393 85.9086 12.1099C85.3026 12.3805 84.7751 12.7414 84.3261 13.1924C83.8772 13.6434 83.5181 14.1846 83.2487 14.8161C82.9793 15.4249 82.8447 16.0789 82.8447 16.778V25.9112H77.7942V16.778Z" fill="#1D293F"/>
<path d="M92.9238 0C93.3278 0 93.6982 0.0789285 94.0349 0.236785C94.394 0.394644 94.6971 0.60888 94.944 0.879493C95.2133 1.12755 95.4266 1.43199 95.5837 1.79281C95.7408 2.13108 95.8194 2.50317 95.8194 2.90909C95.8194 3.31501 95.7408 3.69838 95.5837 4.0592C95.4266 4.39746 95.2133 4.7019 94.944 4.97252C94.6971 5.24313 94.394 5.45736 94.0349 5.61522C93.6982 5.75053 93.3278 5.81818 92.9238 5.81818C92.1157 5.81818 91.4311 5.53629 90.8699 4.97252C90.3087 4.40874 90.0282 3.72093 90.0282 2.90909C90.0282 2.50317 90.0955 2.13108 90.2302 1.79281C90.3873 1.43199 90.6006 1.12755 90.8699 0.879493C91.1393 0.60888 91.4423 0.394644 91.779 0.236785C92.1381 0.0789285 92.5197 0 92.9238 0ZM90.3985 7.64482H95.449V25.9112H90.3985V7.64482Z" fill="#1D293F"/>
<path d="M107.792 15.1543C108.465 15.222 109.116 15.3798 109.744 15.6279C110.395 15.876 110.968 16.2142 111.462 16.6427C111.978 17.0712 112.393 17.5899 112.707 18.1987C113.022 18.7851 113.179 19.4616 113.179 20.2283C113.179 21.198 112.977 22.0775 112.573 22.8668C112.169 23.6335 111.619 24.2875 110.923 24.8288C110.25 25.3474 109.464 25.7421 108.566 26.0127C107.691 26.3058 106.759 26.4524 105.771 26.4524C104.806 26.4524 103.875 26.3058 102.977 26.0127C102.079 25.7421 101.282 25.3474 100.586 24.8288C99.9129 24.2875 99.3742 23.6335 98.9701 22.8668C98.5661 22.0775 98.3641 21.198 98.3641 20.2283H103.415C103.415 20.9951 103.661 21.5137 104.155 21.7844C104.672 22.055 105.21 22.1903 105.771 22.1903C106.333 22.1903 106.86 22.0437 107.354 21.7505C107.87 21.4574 108.128 21.0176 108.128 20.4313C108.128 20.0028 107.881 19.6195 107.388 19.2812C106.894 18.9429 106.265 18.7174 105.502 18.6047C104.627 18.4919 103.762 18.2777 102.909 17.9619C102.079 17.6462 101.338 17.2516 100.687 16.778C100.059 16.3044 99.5425 15.7632 99.1385 15.1543C98.7569 14.5229 98.5661 13.8464 98.5661 13.1247C98.5661 12.2001 98.7569 11.3658 99.1385 10.6216C99.5201 9.87738 100.036 9.24595 100.687 8.72727C101.361 8.2086 102.135 7.81395 103.011 7.54334C103.886 7.25018 104.806 7.10359 105.771 7.10359C106.759 7.10359 107.679 7.25018 108.532 7.54334C109.408 7.81395 110.171 8.21987 110.822 8.7611C111.495 9.27977 112.023 9.92248 112.404 10.6892C112.786 11.456 112.977 12.3354 112.977 13.3277H107.926C107.926 12.9443 107.859 12.6286 107.724 12.3806C107.612 12.1099 107.455 11.907 107.253 11.7717C107.051 11.6138 106.815 11.5123 106.546 11.4672C106.299 11.3996 106.041 11.3658 105.771 11.3658C105.21 11.3658 104.705 11.4898 104.256 11.7378C103.83 11.9634 103.617 12.3806 103.617 12.9894C103.617 13.26 103.74 13.5194 103.987 13.7674C104.234 13.993 104.559 14.2072 104.963 14.4101C105.367 14.5906 105.816 14.7484 106.31 14.8837C106.804 14.9965 107.298 15.0867 107.792 15.1543Z" fill="#1D293F"/>
<path d="M124.899 7.10359C126.291 7.10359 127.604 7.36293 128.838 7.88161C130.073 8.37773 131.139 9.06554 132.037 9.94503C132.957 10.8245 133.676 11.8506 134.192 13.0233C134.731 14.1959 135 15.4475 135 16.778C135 17.0937 134.978 17.3982 134.933 17.6913C134.91 17.9619 134.877 18.2438 134.832 18.537H120.152C120.533 19.5067 121.139 20.3073 121.97 20.9387C122.823 21.5476 123.799 21.852 124.899 21.852C125.707 21.852 126.459 21.6716 127.155 21.3108C127.851 20.95 128.423 20.4764 128.872 19.8901H134.461C134.125 20.8372 133.642 21.7167 133.013 22.5285C132.407 23.3404 131.678 24.0395 130.825 24.6258C129.994 25.1896 129.074 25.6293 128.064 25.945C127.076 26.2833 126.021 26.4524 124.899 26.4524C123.507 26.4524 122.194 26.2044 120.96 25.7082C119.725 25.1896 118.648 24.4905 117.727 23.611C116.83 22.7315 116.111 21.7054 115.573 20.5328C115.056 19.3601 114.798 18.1085 114.798 16.778C114.798 15.4475 115.056 14.1959 115.573 13.0233C116.111 11.8506 116.83 10.8245 117.727 9.94503C118.648 9.06554 119.725 8.37773 120.96 7.88161C122.194 7.36293 123.507 7.10359 124.899 7.10359ZM129.646 15.019C129.265 14.0493 128.648 13.26 127.795 12.6512C126.942 12.0197 125.976 11.704 124.899 11.704C123.799 11.704 122.823 12.0197 121.97 12.6512C121.139 13.26 120.533 14.0493 120.152 15.019H129.646Z" fill="#1D293F"/>
<path d="M4.82666 9.00378C6.00244 8.26238 7.24962 7.78051 8.56821 7.55816C9.87482 7.31688 11.141 7.32617 12.3669 7.58603C13.6117 7.83394 14.7636 8.31249 15.8228 9.0217C16.901 9.71896 17.7935 10.626 18.5004 11.7427C18.6681 12.0077 18.8109 12.2752 18.9287 12.5451C19.0535 12.7842 19.1748 13.0388 19.2927 13.3087L6.8901 21.1293C7.72767 21.7399 8.66503 22.089 9.70217 22.1765C10.7463 22.2331 11.733 21.9685 12.6622 21.3825C13.3449 20.9521 13.8844 20.4 14.2806 19.7265C14.6768 19.053 14.9088 18.3505 14.9765 17.6193L19.6986 14.6417C19.9174 15.616 19.9769 16.6113 19.8772 17.6276C19.7965 18.6318 19.5516 19.6072 19.1424 20.5537C18.7403 21.4694 18.1964 22.3288 17.5107 23.1319C16.856 23.9419 16.0546 24.6459 15.1063 25.2438C13.9306 25.9852 12.6894 26.4765 11.3828 26.7178C10.0642 26.9402 8.78248 26.9274 7.53769 26.6795C6.31187 26.4196 5.15988 25.9411 4.08173 25.2438C3.02254 24.5346 2.13951 23.6216 1.43263 22.5049C0.725751 21.3882 0.278895 20.2001 0.0920588 18.9409C-0.0758131 17.6696 -0.0140956 16.4258 0.277212 15.2093C0.587484 13.9808 1.13234 12.8295 1.91179 11.7554C2.67926 10.6624 3.65088 9.74517 4.82666 9.00378ZM13.0429 13.1183C12.2053 12.5077 11.2645 12.1741 10.2204 12.1174C9.16425 12.0419 8.18106 12.2911 7.27078 12.865C6.34154 13.451 5.68433 14.2361 5.29916 15.2205C4.92097 16.174 4.82827 17.1594 5.02106 18.1765L13.0429 13.1183Z" fill="#28B0A6"/>
</svg>
