<svg width="168" height="40" viewBox="0 0 168 40" fill="none" xmlns="http://www.w3.org/2000/svg">
<path d="M26.4722 20.9725C26.4722 19.3094 26.7376 17.7449 27.2683 16.2791C27.7991 14.8133 28.5533 13.5307 29.5309 12.4313C30.5086 11.3319 31.6958 10.4722 33.0925 9.85201C34.4891 9.20366 36.0534 8.87949 37.7853 8.87949C39.4334 8.87949 40.9557 9.23185 42.3524 9.93658C43.777 10.6131 44.9781 11.5433 45.9558 12.7273C46.9335 11.5433 48.1207 10.6131 49.5173 9.93658C50.9419 9.23185 52.4783 8.87949 54.1264 8.87949C55.8582 8.87949 57.4225 9.20366 58.8192 9.85201C60.2159 10.4722 61.403 11.3319 62.3807 12.4313C63.3584 13.5307 64.1126 14.8133 64.6433 16.2791C65.1741 17.7449 65.4394 19.3094 65.4394 20.9725V32.389H59.1544V20.9725C59.1544 20.0987 59.0566 19.2812 58.8611 18.5201C58.6656 17.7308 58.3583 17.0543 57.9393 16.4905C57.5203 15.9267 56.9895 15.4757 56.3471 15.1374C55.7325 14.7992 54.9923 14.63 54.1264 14.63C53.2604 14.63 52.5062 14.7992 51.8638 15.1374C51.2492 15.4757 50.7324 15.9267 50.3134 16.4905C49.8944 17.0543 49.5872 17.7308 49.3916 18.5201C49.1961 19.2812 49.0983 20.0987 49.0983 20.9725V32.389H42.8133V20.9725C42.8133 20.0987 42.7155 19.2812 42.52 18.5201C42.3245 17.7308 42.0172 17.0543 41.5982 16.4905C41.1792 15.9267 40.6485 15.4757 40.006 15.1374C39.3915 14.7992 38.6512 14.63 37.7853 14.63C36.9193 14.63 36.1651 14.7992 35.5227 15.1374C34.9081 15.4757 34.3914 15.9267 33.9724 16.4905C33.5534 17.0543 33.2461 17.7308 33.0506 18.5201C32.855 19.2812 32.7573 20.0987 32.7573 20.9725V32.389H26.4722V20.9725Z" fill="#1D293F"/>
<path d="M81.6352 8.87949C83.367 8.87949 84.9872 9.20366 86.4956 9.85201C88.004 10.4722 89.3169 11.3319 90.4342 12.4313C91.5515 13.5307 92.4314 14.8133 93.0739 16.2791C93.7443 17.7449 94.0795 19.3094 94.0795 20.9725C94.0795 22.6357 93.7443 24.2001 93.0739 25.666C92.4314 27.1318 91.5515 28.4144 90.4342 29.5137C89.3169 30.6131 88.004 31.487 86.4956 32.1353C84.9872 32.7555 83.367 33.0655 81.6352 33.0655C80.434 33.0655 79.3027 32.84 78.2412 32.389C77.2077 31.938 76.2859 31.3178 75.4758 30.5285V40H69.1908V20.9725C69.1908 19.3094 69.512 17.7449 70.1545 16.2791C70.8249 14.8133 71.7188 13.5307 72.8361 12.4313C73.9535 11.3319 75.2663 10.4722 76.7747 9.85201C78.3111 9.20366 79.9312 8.87949 81.6352 8.87949ZM81.5095 27.315C82.3754 27.315 83.1855 27.1459 83.9397 26.8076C84.7218 26.4693 85.3922 26.0183 85.9509 25.4545C86.5095 24.8908 86.9565 24.2283 87.2917 23.4672C87.6269 22.6779 87.7945 21.8464 87.7945 20.9725C87.7945 20.0987 87.6269 19.2812 87.2917 18.5201C86.9565 17.7308 86.5095 17.0543 85.9509 16.4905C85.3922 15.9267 84.7218 15.4757 83.9397 15.1374C83.1855 14.7992 82.3754 14.63 81.5095 14.63C80.6435 14.63 79.8195 14.7992 79.0373 15.1374C78.2831 15.4757 77.6267 15.9267 77.068 16.4905C76.5094 17.0543 76.0624 17.7308 75.7272 18.5201C75.392 19.2812 75.2244 20.0987 75.2244 20.9725C75.2244 21.8464 75.392 22.6779 75.7272 23.4672C76.0624 24.2283 76.5094 24.8908 77.068 25.4545C77.6267 26.0183 78.2831 26.4693 79.0373 26.8076C79.8195 27.1459 80.6435 27.315 81.5095 27.315Z" fill="#1D293F"/>
<path d="M96.8106 20.9725C96.8106 19.3094 97.0899 17.7449 97.6486 16.2791C98.2352 14.8133 99.0452 13.5307 100.079 12.4313C101.112 11.3319 102.341 10.4722 103.766 9.85201C105.219 9.20366 106.811 8.87949 108.543 8.87949H109.381V14.63C108.515 14.63 107.691 14.7992 106.909 15.1374C106.154 15.4757 105.498 15.9267 104.939 16.4905C104.381 17.0543 103.934 17.7308 103.598 18.5201C103.263 19.2812 103.096 20.0987 103.096 20.9725V32.389H96.8106V20.9725Z" fill="#1D293F"/>
<path d="M115.638 0C116.141 0 116.602 0.0986606 117.021 0.295982C117.468 0.493305 117.845 0.7611 118.152 1.09937C118.488 1.40944 118.753 1.78999 118.949 2.24101C119.144 2.66385 119.242 3.12896 119.242 3.63636C119.242 4.14376 119.144 4.62297 118.949 5.074C118.753 5.49683 118.488 5.87738 118.152 6.21565C117.845 6.55391 117.468 6.8217 117.021 7.01903C116.602 7.18816 116.141 7.27273 115.638 7.27273C114.633 7.27273 113.781 6.92037 113.083 6.21565C112.384 5.51092 112.035 4.65116 112.035 3.63636C112.035 3.12896 112.119 2.66385 112.286 2.24101C112.482 1.78999 112.747 1.40944 113.083 1.09937C113.418 0.7611 113.795 0.493305 114.214 0.295982C114.661 0.0986606 115.136 0 115.638 0ZM112.496 9.55603H118.781V32.389H112.496V9.55603Z" fill="#1D293F"/>
<path d="M134.141 18.9429C134.979 19.0275 135.789 19.2248 136.571 19.5349C137.381 19.845 138.093 20.2678 138.708 20.8034C139.35 21.339 139.867 21.9873 140.258 22.7484C140.649 23.4813 140.845 24.327 140.845 25.2854C140.845 26.4975 140.593 27.5969 140.091 28.5835C139.588 29.5419 138.903 30.3594 138.037 31.0359C137.199 31.6843 136.222 32.1776 135.104 32.5159C134.015 32.8823 132.856 33.0655 131.627 33.0655C130.426 33.0655 129.266 32.8823 128.149 32.5159C127.032 32.1776 126.04 31.6843 125.174 31.0359C124.336 30.3594 123.666 29.5419 123.163 28.5835C122.66 27.5969 122.409 26.4975 122.409 25.2854H128.694C128.694 26.2438 129.001 26.8922 129.615 27.2304C130.258 27.5687 130.928 27.7378 131.627 27.7378C132.325 27.7378 132.981 27.5546 133.596 27.1882C134.238 26.8217 134.56 26.272 134.56 25.5391C134.56 25.0035 134.252 24.5243 133.638 24.1015C133.023 23.6786 132.241 23.3968 131.291 23.2558C130.202 23.1149 129.127 22.8471 128.065 22.4524C127.032 22.0578 126.11 21.5645 125.3 20.9725C124.518 20.3805 123.875 19.704 123.372 18.9429C122.897 18.1536 122.66 17.308 122.66 16.4059C122.66 15.2502 122.897 14.2072 123.372 13.277C123.847 12.3467 124.49 11.5574 125.3 10.9091C126.138 10.2607 127.101 9.76744 128.191 9.42918C129.28 9.06272 130.426 8.87949 131.627 8.87949C132.856 8.87949 134.001 9.06272 135.062 9.42918C136.152 9.76744 137.102 10.2748 137.912 10.9514C138.75 11.5997 139.406 12.4031 139.881 13.3615C140.356 14.3199 140.593 15.4193 140.593 16.6596H134.308C134.308 16.1804 134.224 15.7858 134.057 15.4757C133.917 15.1374 133.722 14.8837 133.47 14.7146C133.219 14.5173 132.926 14.3904 132.59 14.334C132.283 14.2495 131.962 14.2072 131.627 14.2072C130.928 14.2072 130.3 14.3622 129.741 14.6723C129.21 14.9542 128.945 15.4757 128.945 16.2368C128.945 16.5751 129.099 16.8992 129.406 17.2093C129.713 17.4912 130.118 17.759 130.621 18.0127C131.124 18.2382 131.683 18.4355 132.297 18.6047C132.912 18.7456 133.526 18.8584 134.141 18.9429Z" fill="#1D293F"/>
<path d="M155.43 8.87949C157.162 8.87949 158.796 9.20366 160.332 9.85201C161.869 10.4722 163.195 11.3319 164.313 12.4313C165.458 13.5307 166.352 14.8133 166.994 16.2791C167.665 17.7449 168 19.3094 168 20.9725C168 21.3672 167.972 21.7477 167.916 22.1142C167.888 22.4524 167.846 22.8048 167.79 23.1712H149.522C149.997 24.3834 150.751 25.3841 151.785 26.1734C152.846 26.9345 154.061 27.315 155.43 27.315C156.436 27.315 157.371 27.0895 158.237 26.6385C159.103 26.1875 159.815 25.5955 160.374 24.8626H167.33C166.911 26.0465 166.31 27.1459 165.528 28.1607C164.774 29.1755 163.866 30.0493 162.804 30.7822C161.771 31.487 160.626 32.0366 159.369 32.4313C158.139 32.8541 156.827 33.0655 155.43 33.0655C153.698 33.0655 152.064 32.7555 150.528 32.1353C148.991 31.487 147.65 30.6131 146.505 29.5137C145.388 28.4144 144.494 27.1318 143.824 25.666C143.181 24.2001 142.86 22.6357 142.86 20.9725C142.86 19.3094 143.181 17.7449 143.824 16.2791C144.494 14.8133 145.388 13.5307 146.505 12.4313C147.65 11.3319 148.991 10.4722 150.528 9.85201C152.064 9.20366 153.698 8.87949 155.43 8.87949ZM161.338 18.7738C160.863 17.5617 160.095 16.5751 159.033 15.814C157.972 15.0247 156.771 14.63 155.43 14.63C154.061 14.63 152.846 15.0247 151.785 15.814C150.751 16.5751 149.997 17.5617 149.522 18.7738H161.338Z" fill="#1D293F"/>
<path d="M6.00651 11.2547C7.4697 10.328 9.02175 9.72563 10.6627 9.44769C12.2887 9.1461 13.8644 9.15771 15.3899 9.48254C16.9389 9.79242 18.3725 10.3906 19.6906 11.2771C21.0323 12.1487 22.143 13.2824 23.0227 14.6784C23.2314 15.0096 23.4091 15.344 23.5557 15.6814C23.711 15.9803 23.862 16.2985 24.0086 16.6359L8.57435 26.4116C9.61666 27.1749 10.7832 27.6112 12.0738 27.7206C13.3732 27.7914 14.601 27.4606 15.7574 26.7282C16.607 26.1901 17.2783 25.5 17.7714 24.6581C18.2644 23.8162 18.5531 22.9382 18.6375 22.0241L24.5138 18.3021C24.786 19.5201 24.8601 20.7642 24.7361 22.0344C24.6356 23.2898 24.3308 24.509 23.8217 25.6922C23.3212 26.8367 22.6444 27.9109 21.7911 28.9148C20.9764 29.9274 19.979 30.8074 18.799 31.5548C17.3358 32.4815 15.7912 33.0957 14.1652 33.3973C12.5243 33.6752 10.9293 33.6592 9.38024 33.3494C7.85477 33.0245 6.42118 32.4263 5.07948 31.5548C3.76138 30.6683 2.6625 29.527 1.78283 28.1311C0.903157 26.7352 0.347069 25.2502 0.114562 23.6761C-0.0943452 22.087 -0.0175412 20.5322 0.344975 19.0116C0.731091 17.476 1.40914 16.0369 2.37912 14.6943C3.33419 13.328 4.54332 12.1815 6.00651 11.2547ZM16.2312 16.3979C15.1889 15.6346 14.018 15.2176 12.7187 15.1468C11.4044 15.0523 10.1809 15.3638 9.04808 16.0813C7.89169 16.8137 7.07383 17.7952 6.59451 19.0257C6.12388 20.2175 6.00852 21.4492 6.24844 22.7207L16.2312 16.3979Z" fill="#28B0A6"/>
</svg>
