<svg width="224" height="53" viewBox="0 0 224 53" fill="none" xmlns="http://www.w3.org/2000/svg">
<path d="M36.0006 27.7886C36.0006 25.5849 36.3531 23.512 37.0581 21.5698C37.7631 19.6276 38.765 17.9281 40.0637 16.4715C41.3624 15.0148 42.9394 13.8756 44.7947 13.0539C46.65 12.1949 48.7279 11.7653 51.0284 11.7653C53.2177 11.7653 55.2399 12.2322 57.0952 13.166C58.9876 14.0624 60.5832 15.2949 61.8819 16.8636C63.1806 15.2949 64.7576 14.0624 66.6129 13.166C68.5052 12.2322 70.5461 11.7653 72.7353 11.7653C75.0359 11.7653 77.1138 12.1949 78.9691 13.0539C80.8244 13.8756 82.4013 15.0148 83.7001 16.4715C84.9988 17.9281 86.0006 19.6276 86.7056 21.5698C87.4106 23.512 87.7631 25.5849 87.7631 27.7886V42.9154H79.4143V27.7886C79.4143 26.6307 79.2845 25.5476 79.0247 24.5391C78.765 23.4933 78.3568 22.5969 77.8002 21.8499C77.2436 21.1029 76.5386 20.5053 75.6852 20.0571C74.8689 19.6089 73.8856 19.3848 72.7353 19.3848C71.585 19.3848 70.5832 19.6089 69.7297 20.0571C68.9134 20.5053 68.2269 21.1029 67.6704 21.8499C67.1138 22.5969 66.7056 23.4933 66.4459 24.5391C66.1861 25.5476 66.0563 26.6307 66.0563 27.7886V42.9154H57.7075V27.7886C57.7075 26.6307 57.5776 25.5476 57.3179 24.5391C57.0581 23.4933 56.65 22.5969 56.0934 21.8499C55.5368 21.1029 54.8318 20.5053 53.9783 20.0571C53.162 19.6089 52.1787 19.3848 51.0284 19.3848C49.8782 19.3848 48.8763 19.6089 48.0229 20.0571C47.2065 20.5053 46.5201 21.1029 45.9635 21.8499C45.4069 22.5969 44.9988 23.4933 44.739 24.5391C44.4793 25.5476 44.3494 26.6307 44.3494 27.7886V42.9154H36.0006V27.7886Z" fill="#1D293F"/>
<path d="M109.277 11.7653C111.577 11.7653 113.73 12.1949 115.733 13.0539C117.737 13.8756 119.481 15.0148 120.965 16.4715C122.449 17.9281 123.618 19.6276 124.472 21.5698C125.362 23.512 125.808 25.5849 125.808 27.7886C125.808 29.9922 125.362 32.0652 124.472 34.0074C123.618 35.9496 122.449 37.649 120.965 39.1057C119.481 40.5624 117.737 41.7202 115.733 42.5793C113.73 43.401 111.577 43.8118 109.277 43.8118C107.681 43.8118 106.179 43.513 104.769 42.9154C103.396 42.3178 102.171 41.4961 101.095 40.4503V53H92.7463V27.7886C92.7463 25.5849 93.173 23.512 94.0265 21.5698C94.917 19.6276 96.1044 17.9281 97.5886 16.4715C99.0728 15.0148 100.817 13.8756 102.821 13.0539C104.861 12.1949 107.013 11.7653 109.277 11.7653ZM109.11 36.1924C110.26 36.1924 111.336 35.9683 112.338 35.5201C113.377 35.0719 114.268 34.4743 115.01 33.7273C115.752 32.9803 116.346 32.1025 116.791 31.0941C117.236 30.0483 117.459 28.9464 117.459 27.7886C117.459 26.6307 117.236 25.5476 116.791 24.5391C116.346 23.4933 115.752 22.5969 115.01 21.8499C114.268 21.1029 113.377 20.5053 112.338 20.0571C111.336 19.6089 110.26 19.3848 109.11 19.3848C107.96 19.3848 106.865 19.6089 105.826 20.0571C104.824 20.5053 103.952 21.1029 103.21 21.8499C102.468 22.5969 101.874 23.4933 101.429 24.5391C100.984 25.5476 100.761 26.6307 100.761 27.7886C100.761 28.9464 100.984 30.0483 101.429 31.0941C101.874 32.1025 102.468 32.9803 103.21 33.7273C103.952 34.4743 104.824 35.0719 105.826 35.5201C106.865 35.9683 107.96 36.1924 109.11 36.1924Z" fill="#1D293F"/>
<path d="M129.435 27.7886C129.435 25.5849 129.806 23.512 130.549 21.5698C131.328 19.6276 132.404 17.9281 133.777 16.4715C135.15 15.0148 136.782 13.8756 138.675 13.0539C140.604 12.1949 142.719 11.7653 145.02 11.7653H146.133V19.3848C144.983 19.3848 143.888 19.6089 142.849 20.0571C141.847 20.5053 140.975 21.1029 140.233 21.8499C139.491 22.5969 138.897 23.4933 138.452 24.5391C138.007 25.5476 137.784 26.6307 137.784 27.7886V42.9154H129.435V27.7886Z" fill="#1D293F"/>
<path d="M154.446 0C155.114 0 155.726 0.130725 156.282 0.392176C156.876 0.653629 157.377 1.00846 157.785 1.45666C158.23 1.86751 158.583 2.37174 158.843 2.96934C159.102 3.5296 159.232 4.14588 159.232 4.81818C159.232 5.49048 159.102 6.12544 158.843 6.72304C158.583 7.2833 158.23 7.78753 157.785 8.23573C157.377 8.68393 156.876 9.03876 156.282 9.30021C155.726 9.52431 155.114 9.63636 154.446 9.63636C153.11 9.63636 151.978 9.16949 151.05 8.23573C150.123 7.30197 149.659 6.16279 149.659 4.81818C149.659 4.14588 149.77 3.5296 149.993 2.96934C150.253 2.37174 150.605 1.86751 151.05 1.45666C151.496 1.00846 151.997 0.653629 152.553 0.392176C153.147 0.130725 153.778 0 154.446 0ZM150.271 12.6617H158.62V42.9154H150.271V12.6617Z" fill="#1D293F"/>
<path d="M179.023 25.0994C180.136 25.2114 181.212 25.4729 182.251 25.8837C183.328 26.2946 184.274 26.8548 185.09 27.5645C185.943 28.2741 186.63 29.1332 187.149 30.1416C187.669 31.1128 187.929 32.2333 187.929 33.5032C187.929 35.1092 187.595 36.5659 186.927 37.8731C186.259 39.1431 185.35 40.2262 184.199 41.1226C183.086 41.9817 181.788 42.6353 180.303 43.0835C178.856 43.5691 177.316 43.8118 175.684 43.8118C174.088 43.8118 172.548 43.5691 171.064 43.0835C169.58 42.6353 168.263 41.9817 167.112 41.1226C165.999 40.2262 165.109 39.1431 164.441 37.8731C163.773 36.5659 163.439 35.1092 163.439 33.5032H171.788C171.788 34.7731 172.196 35.6321 173.012 36.0803C173.866 36.5285 174.756 36.7526 175.684 36.7526C176.611 36.7526 177.483 36.5099 178.3 36.0243C179.153 35.5388 179.58 34.8104 179.58 33.8393C179.58 33.1297 179.172 32.4947 178.355 31.9345C177.539 31.3742 176.5 31.0007 175.238 30.814C173.791 30.6272 172.363 30.2724 170.953 29.7495C169.58 29.2266 168.355 28.5729 167.279 27.7886C166.24 27.0042 165.387 26.1078 164.719 25.0994C164.088 24.0536 163.773 22.933 163.773 21.7378C163.773 20.2065 164.088 18.8245 164.719 17.592C165.35 16.3594 166.203 15.3136 167.279 14.4545C168.392 13.5955 169.673 12.9419 171.12 12.4937C172.567 12.0081 174.088 11.7653 175.684 11.7653C177.316 11.7653 178.838 12.0081 180.248 12.4937C181.695 12.9419 182.956 13.6142 184.033 14.5106C185.146 15.3696 186.018 16.4341 186.648 17.704C187.279 18.9739 187.595 20.4306 187.595 22.074H179.246C179.246 21.439 179.135 20.9161 178.912 20.5053C178.726 20.0571 178.467 19.7209 178.133 19.4968C177.799 19.2354 177.409 19.0673 176.964 18.9926C176.556 18.8805 176.129 18.8245 175.684 18.8245C174.756 18.8245 173.921 19.0299 173.179 19.4408C172.474 19.8143 172.122 20.5053 172.122 21.5137C172.122 21.9619 172.326 22.3915 172.734 22.8023C173.142 23.1758 173.68 23.5307 174.348 23.8668C175.016 24.1656 175.758 24.4271 176.574 24.6512C177.391 24.8379 178.207 24.9873 179.023 25.0994Z" fill="#1D293F"/>
<path d="M207.303 11.7653C209.604 11.7653 211.774 12.1949 213.815 13.0539C215.856 13.8756 217.618 15.0148 219.103 16.4715C220.624 17.9281 221.811 19.6276 222.665 21.5698C223.555 23.512 224.001 25.5849 224.001 27.7886C224.001 28.3115 223.964 28.8157 223.889 29.3013C223.852 29.7495 223.797 30.2163 223.722 30.7019H199.455C200.086 32.308 201.088 33.6339 202.461 34.6797C203.871 35.6882 205.485 36.1924 207.303 36.1924C208.639 36.1924 209.882 35.8936 211.032 35.296C212.182 34.6984 213.129 33.914 213.871 32.9429H223.11C222.553 34.5116 221.756 35.9683 220.717 37.3129C219.715 38.6575 218.509 39.8154 217.099 40.7865C215.726 41.7202 214.205 42.4486 212.535 42.9715C210.902 43.5317 209.158 43.8118 207.303 43.8118C205.002 43.8118 202.832 43.401 200.791 42.5793C198.75 41.7202 196.969 40.5624 195.448 39.1057C193.964 37.649 192.776 35.9496 191.886 34.0074C191.032 32.0652 190.605 29.9922 190.605 27.7886C190.605 25.5849 191.032 23.512 191.886 21.5698C192.776 19.6276 193.964 17.9281 195.448 16.4715C196.969 15.0148 198.75 13.8756 200.791 13.0539C202.832 12.1949 205.002 11.7653 207.303 11.7653ZM215.151 24.8753C214.52 23.2692 213.5 21.9619 212.09 20.9535C210.68 19.9077 209.084 19.3848 207.303 19.3848C205.485 19.3848 203.871 19.9077 202.461 20.9535C201.088 21.9619 200.086 23.2692 199.455 24.8753H215.151Z" fill="#1D293F"/>
<path d="M8.81475 14.9125C10.7584 13.6846 12.8201 12.8865 14.9998 12.5182C17.1597 12.1186 19.2529 12.134 21.2793 12.5644C23.337 12.975 25.2413 13.7676 26.9922 14.9422C28.7745 16.097 30.2499 17.5992 31.4184 19.4488C31.6957 19.8877 31.9317 20.3307 32.1265 20.7779C32.3328 21.1739 32.5333 21.5954 32.7281 22.0426L12.2258 34.9954C13.6103 36.0067 15.1599 36.5848 16.8743 36.7298C18.6003 36.8236 20.2314 36.3853 21.7675 35.4148C22.8961 34.7018 23.7878 33.7876 24.4428 32.672C25.0977 31.5564 25.4812 30.3931 25.5932 29.1819L33.3992 24.2503C33.7608 25.8641 33.8592 27.5125 33.6944 29.1956C33.5609 30.859 33.1561 32.4744 32.4797 34.0421C31.815 35.5587 30.9159 36.982 29.7824 38.3121C28.7001 39.6538 27.3753 40.8198 25.8078 41.81C23.8642 43.038 21.8124 43.8518 19.6525 44.2514C17.4727 44.6197 15.354 44.5985 13.2963 44.1879C11.2699 43.7575 9.36559 42.9649 7.58333 41.8101C5.83242 40.6354 4.3727 39.1233 3.20418 37.2737C2.03566 35.4241 1.29697 33.4565 0.988117 31.3708C0.710613 29.2653 0.812636 27.2052 1.29419 25.1903C1.80709 23.1557 2.70778 21.2489 3.99627 19.4699C5.26494 17.6596 6.8711 16.1404 8.81475 14.9125ZM22.3968 21.7272C21.0122 20.7159 19.4569 20.1633 17.7309 20.0695C15.9851 19.9443 14.3598 20.3571 12.8551 21.3077C11.319 22.2782 10.2325 23.5786 9.59583 25.209C8.97066 26.7882 8.81742 28.4202 9.13612 30.1049L22.3968 21.7272Z" fill="#28B0A6"/>
</svg>
