<svg width="161" height="43" viewBox="0 0 161 43" fill="none" xmlns="http://www.w3.org/2000/svg">
<path d="M6.2 8.24V15.56H16.2V19.88H6.2V27.48H17.4V32H0.56V3.76H17.4V8.24H6.2ZM49.7756 9.52C52.469 9.52 54.589 10.36 56.1356 12.04C57.709 13.6933 58.4956 16.0533 58.4956 19.12V32H52.8956V19.76C52.8956 18.0533 52.4556 16.7467 51.5756 15.84C50.7223 14.9067 49.5356 14.44 48.0156 14.44C46.4423 14.44 45.189 14.9333 44.2556 15.92C43.3223 16.9067 42.8556 18.3467 42.8556 20.24V32H37.2556V19.76C37.2556 18.0533 36.8156 16.7467 35.9356 15.84C35.0823 14.9067 33.8956 14.44 32.3756 14.44C30.8023 14.44 29.549 14.9333 28.6156 15.92C27.6823 16.9067 27.2156 18.3467 27.2156 20.24V32H21.5756V9.84H27.2156V14.04C27.8023 12.6 28.7223 11.4933 29.9756 10.72C31.2556 9.92 32.7356 9.52 34.4156 9.52C36.2023 9.52 37.749 9.94667 39.0556 10.8C40.389 11.6533 41.389 12.88 42.0556 14.48C42.749 12.96 43.7756 11.76 45.1356 10.88C46.5223 9.97333 48.069 9.52 49.7756 9.52ZM76.6906 9.56C78.5573 9.56 80.2373 10.0133 81.7306 10.92C83.224 11.8267 84.384 13.1467 85.2106 14.88C86.064 16.5867 86.4906 18.6 86.4906 20.92C86.4906 23.24 86.064 25.2667 85.2106 27C84.384 28.7067 83.224 30.0133 81.7306 30.92C80.2373 31.8267 78.5573 32.28 76.6906 32.28C74.824 32.28 73.224 31.84 71.8906 30.96C70.584 30.0533 69.6506 28.8533 69.0906 27.36V42.56H63.4506V9.84H69.0906V14.44C69.6506 12.9467 70.584 11.76 71.8906 10.88C73.224 10 74.824 9.56 76.6906 9.56ZM74.9306 14.48C73.224 14.48 71.8106 15.0667 70.6906 16.24C69.5973 17.3867 69.0506 18.9467 69.0506 20.92C69.0506 22.8667 69.5973 24.4267 70.6906 25.6C71.8106 26.7467 73.224 27.32 74.9306 27.32C76.6906 27.32 78.104 26.76 79.1706 25.64C80.2373 24.4933 80.7706 22.92 80.7706 20.92C80.7706 18.92 80.2373 17.3467 79.1706 16.2C78.104 15.0533 76.6906 14.48 74.9306 14.48ZM96.1219 14.08C96.9485 12.6667 98.0419 11.56 99.4019 10.76C100.762 9.93333 102.282 9.52 103.962 9.52V15.56H102.322C98.1885 15.56 96.1219 17.48 96.1219 21.32V32H90.4819V9.84H96.1219V14.08ZM106.443 3.48C106.443 2.57333 106.763 1.84 107.403 1.28C108.043 0.693333 108.883 0.399999 109.923 0.399999C110.963 0.399999 111.803 0.693333 112.443 1.28C113.083 1.84 113.403 2.57333 113.403 3.48C113.403 4.36 113.083 5.09333 112.443 5.68C111.803 6.24 110.963 6.52 109.923 6.52C108.883 6.52 108.043 6.24 107.403 5.68C106.763 5.09333 106.443 4.36 106.443 3.48ZM112.723 9.84V32H107.083V9.84H112.723ZM125.466 9.56C128.159 9.56 130.319 10.24 131.946 11.6C133.572 12.96 134.586 14.7733 134.986 17.04H129.706C129.492 15.9733 129.012 15.12 128.266 14.48C127.519 13.84 126.546 13.52 125.346 13.52C124.386 13.52 123.639 13.7467 123.106 14.2C122.572 14.6533 122.306 15.2667 122.306 16.04C122.306 16.6533 122.519 17.1467 122.946 17.52C123.372 17.8933 123.906 18.1867 124.546 18.4C125.186 18.6133 126.106 18.8667 127.306 19.16C128.986 19.5333 130.346 19.9333 131.386 20.36C132.452 20.76 133.359 21.4133 134.106 22.32C134.879 23.2 135.266 24.4 135.266 25.92C135.266 27.8133 134.519 29.3467 133.026 30.52C131.559 31.6933 129.572 32.28 127.066 32.28C124.186 32.28 121.879 31.64 120.146 30.36C118.412 29.0533 117.359 27.2 116.986 24.8H122.386C122.519 25.8933 122.999 26.76 123.826 27.4C124.652 28.0133 125.732 28.32 127.066 28.32C128.026 28.32 128.759 28.0933 129.266 27.64C129.772 27.16 130.026 26.5467 130.026 25.8C130.026 25.16 129.799 24.64 129.346 24.24C128.919 23.84 128.372 23.5333 127.706 23.32C127.066 23.1067 126.146 22.8533 124.946 22.56C123.292 22.1867 121.946 21.8133 120.906 21.44C119.892 21.04 119.012 20.4133 118.266 19.56C117.546 18.7067 117.186 17.5333 117.186 16.04C117.186 14.12 117.919 12.56 119.386 11.36C120.852 10.16 122.879 9.56 125.466 9.56ZM160.306 20.08C160.306 20.64 160.24 21.28 160.106 22H143.866C143.946 23.9733 144.48 25.4267 145.466 26.36C146.453 27.2933 147.68 27.76 149.146 27.76C150.453 27.76 151.533 27.44 152.386 26.8C153.266 26.16 153.826 25.2933 154.066 24.2H160.026C159.733 25.7467 159.106 27.1333 158.146 28.36C157.186 29.5867 155.946 30.5467 154.426 31.24C152.933 31.9333 151.266 32.28 149.426 32.28C147.266 32.28 145.346 31.8267 143.666 30.92C141.986 29.9867 140.68 28.6667 139.746 26.96C138.813 25.2533 138.346 23.24 138.346 20.92C138.346 18.6 138.813 16.5867 139.746 14.88C140.68 13.1467 141.986 11.8267 143.666 10.92C145.346 10.0133 147.266 9.56 149.426 9.56C151.613 9.56 153.52 10.0133 155.146 10.92C156.8 11.8267 158.066 13.08 158.946 14.68C159.853 16.2533 160.306 18.0533 160.306 20.08ZM154.626 19.52C154.706 17.7067 154.226 16.3333 153.186 15.4C152.173 14.4667 150.92 14 149.426 14C147.906 14 146.626 14.4667 145.586 15.4C144.546 16.3333 143.973 17.7067 143.866 19.52H154.626Z" fill="#1D293F"/>
</svg>
