<svg width="200" height="48" viewBox="0 0 200 48" fill="none" xmlns="http://www.w3.org/2000/svg">
<rect width="200" height="48" fill="white"/>
<path d="M0 38.8668V2.33404H25.001V9.64059H8.0975V16.8457H21.9645V24.1522H8.0975V31.5603H25.001V38.8668H0Z" fill="#423C3C"/>
<path d="M29.0549 25.167C29.0549 23.1712 29.3755 21.2939 30.0165 19.5349C30.6576 17.7759 31.5685 16.2368 32.7494 14.9175C33.9303 13.5983 35.3642 12.5666 37.0512 11.8224C38.7382 11.0444 40.6276 10.6554 42.7195 10.6554C44.7101 10.6554 46.5489 11.0782 48.2359 11.9239C49.9566 12.7357 51.4074 13.852 52.5883 15.2727C53.7692 13.852 55.2031 12.7357 56.8901 11.9239C58.6108 11.0782 60.4665 10.6554 62.4571 10.6554C64.549 10.6554 66.4384 11.0444 68.1254 11.8224C69.8124 12.5666 71.2463 13.5983 72.4272 14.9175C73.6081 16.2368 74.519 17.7759 75.1601 19.5349C75.8011 21.2939 76.1217 23.1712 76.1217 25.167V38.8668H68.5303V25.167C68.5303 24.1184 68.4122 23.1374 68.176 22.2241C67.9398 21.277 67.5687 20.4651 67.0626 19.7886C66.5565 19.1121 65.9154 18.5708 65.1394 18.1649C64.3972 17.759 63.5031 17.556 62.4571 17.556C61.4112 17.556 60.5002 17.759 59.7242 18.1649C58.9819 18.5708 58.3578 19.1121 57.8517 19.7886C57.3456 20.4651 56.9744 21.277 56.7383 22.2241C56.5021 23.1374 56.384 24.1184 56.384 25.167V38.8668H48.7926V25.167C48.7926 24.1184 48.6745 23.1374 48.4383 22.2241C48.2021 21.277 47.831 20.4651 47.3249 19.7886C46.8188 19.1121 46.1778 18.5708 45.4018 18.1649C44.6595 17.759 43.7654 17.556 42.7195 17.556C41.6735 17.556 40.7626 17.759 39.9866 18.1649C39.2443 18.5708 38.6201 19.1121 38.114 19.7886C37.6079 20.4651 37.2368 21.277 37.0006 22.2241C36.7644 23.1374 36.6463 24.1184 36.6463 25.167V38.8668H29.0549V25.167Z" fill="#423C3C"/>
<path d="M95.6838 10.6554C97.7756 10.6554 99.7325 11.0444 101.554 11.8224C103.376 12.5666 104.962 13.5983 106.312 14.9175C107.661 16.2368 108.724 17.7759 109.5 19.5349C110.31 21.2939 110.715 23.1712 110.715 25.167C110.715 27.1628 110.31 29.0402 109.5 30.7992C108.724 32.5581 107.661 34.0972 106.312 35.4165C104.962 36.7357 103.376 37.7844 101.554 38.5624C99.7325 39.3066 97.7756 39.6786 95.6838 39.6786C94.233 39.6786 92.8665 39.408 91.5844 38.8668C90.336 38.3256 89.2226 37.5814 88.2442 36.6343V48H80.6528V25.167C80.6528 23.1712 81.0408 21.2939 81.8168 19.5349C82.6265 17.7759 83.7062 16.2368 85.0558 14.9175C86.4054 13.5983 87.9911 12.5666 89.8131 11.8224C91.6688 11.0444 93.6256 10.6554 95.6838 10.6554ZM95.5319 32.778C96.5779 32.778 97.5563 32.5751 98.4673 32.1691C99.412 31.7632 100.222 31.222 100.897 30.5455C101.571 29.8689 102.111 29.074 102.516 28.1607C102.921 27.2135 103.123 26.2156 103.123 25.167C103.123 24.1184 102.921 23.1374 102.516 22.2241C102.111 21.277 101.571 20.4651 100.897 19.7886C100.222 19.1121 99.412 18.5708 98.4673 18.1649C97.5563 17.759 96.5779 17.556 95.5319 17.556C94.486 17.556 93.4907 17.759 92.546 18.1649C91.635 18.5708 90.8421 19.1121 90.1673 19.7886C89.4926 20.4651 88.9527 21.277 88.5478 22.2241C88.143 23.1374 87.9405 24.1184 87.9405 25.167C87.9405 26.2156 88.143 27.2135 88.5478 28.1607C88.9527 29.074 89.4926 29.8689 90.1673 30.5455C90.8421 31.222 91.635 31.7632 92.546 32.1691C93.4907 32.5751 94.486 32.778 95.5319 32.778Z" fill="#423C3C"/>
<path d="M114.013 25.167C114.013 23.1712 114.351 21.2939 115.026 19.5349C115.734 17.7759 116.713 16.2368 117.961 14.9175C119.209 13.5983 120.694 12.5666 122.415 11.8224C124.169 11.0444 126.092 10.6554 128.184 10.6554H129.196V17.556C128.15 17.556 127.155 17.759 126.21 18.1649C125.299 18.5708 124.506 19.1121 123.832 19.7886C123.157 20.4651 122.617 21.277 122.212 22.2241C121.807 23.1374 121.605 24.1184 121.605 25.167V38.8668H114.013V25.167Z" fill="#423C3C"/>
<path d="M136.755 0C137.362 0 137.919 0.118393 138.425 0.355178C138.965 0.591966 139.42 0.91332 139.791 1.31924C140.196 1.69133 140.517 2.14799 140.753 2.68922C140.989 3.19662 141.107 3.75476 141.107 4.36364C141.107 4.97252 140.989 5.54757 140.753 6.0888C140.517 6.59619 140.196 7.05285 139.791 7.45878C139.42 7.86469 138.965 8.18605 138.425 8.42283C137.919 8.62579 137.362 8.72727 136.755 8.72727C135.54 8.72727 134.511 8.30444 133.668 7.45878C132.824 6.61311 132.402 5.58139 132.402 4.36364C132.402 3.75476 132.504 3.19662 132.706 2.68922C132.942 2.14799 133.263 1.69133 133.668 1.31924C134.073 0.91332 134.528 0.591966 135.034 0.355178C135.574 0.118393 136.148 0 136.755 0ZM132.959 11.4672H140.551V38.8668H132.959V11.4672Z" fill="#423C3C"/>
<path d="M159.103 22.7315C160.115 22.833 161.094 23.0698 162.038 23.4419C163.017 23.814 163.877 24.3214 164.619 24.9641C165.395 25.6068 166.019 26.3848 166.492 27.2981C166.964 28.1776 167.2 29.1924 167.2 30.3425C167.2 31.797 166.897 33.1163 166.289 34.3002C165.682 35.4503 164.855 36.4313 163.81 37.2431C162.797 38.0211 161.616 38.6131 160.267 39.019C158.951 39.4588 157.551 39.6786 156.066 39.6786C154.615 39.6786 153.215 39.4588 151.866 39.019C150.516 38.6131 149.318 38.0211 148.272 37.2431C147.26 36.4313 146.451 35.4503 145.843 34.3002C145.236 33.1163 144.932 31.797 144.932 30.3425H152.524C152.524 31.4926 152.895 32.2706 153.637 32.6765C154.413 33.0825 155.223 33.2854 156.066 33.2854C156.91 33.2854 157.703 33.0655 158.445 32.6258C159.221 32.1861 159.609 31.5264 159.609 30.6469C159.609 30.0042 159.238 29.4292 158.496 28.9218C157.753 28.4144 156.809 28.0761 155.661 27.907C154.346 27.7378 153.047 27.4165 151.765 26.9429C150.516 26.4693 149.403 25.8774 148.424 25.167C147.48 24.4567 146.704 23.6448 146.096 22.7315C145.523 21.7844 145.236 20.7696 145.236 19.6871C145.236 18.3002 145.523 17.0486 146.096 15.9323C146.67 14.8161 147.446 13.8689 148.424 13.0909C149.436 12.3129 150.6 11.7209 151.916 11.315C153.232 10.8753 154.615 10.6554 156.066 10.6554C157.551 10.6554 158.934 10.8753 160.216 11.315C161.532 11.7209 162.679 12.3298 163.658 13.1416C164.67 13.9197 165.463 14.8837 166.036 16.0338C166.61 17.1839 166.897 18.5032 166.897 19.9915H159.305C159.305 19.4165 159.204 18.9429 159.002 18.5708C158.833 18.1649 158.597 17.8605 158.293 17.6575C157.989 17.4207 157.635 17.2685 157.23 17.2008C156.859 17.0994 156.471 17.0486 156.066 17.0486C155.223 17.0486 154.464 17.2347 153.789 17.6068C153.148 17.945 152.827 18.5708 152.827 19.4841C152.827 19.8901 153.013 20.2791 153.384 20.6512C153.755 20.9894 154.244 21.3108 154.852 21.6152C155.459 21.8858 156.134 22.1226 156.876 22.3256C157.618 22.4947 158.361 22.63 159.103 22.7315Z" fill="#423C3C"/>
<path d="M184.817 10.6554C186.909 10.6554 188.883 11.0444 190.738 11.8224C192.594 12.5666 194.197 13.5983 195.546 14.9175C196.93 16.2368 198.009 17.7759 198.785 19.5349C199.595 21.2939 200 23.1712 200 25.167C200 25.6406 199.966 26.0972 199.899 26.537C199.865 26.9429 199.814 27.3658 199.747 27.8055H177.681C178.255 29.26 179.166 30.4609 180.414 31.408C181.696 32.3214 183.164 32.778 184.817 32.778C186.032 32.778 187.162 32.5074 188.208 31.9662C189.254 31.4249 190.114 30.7146 190.789 29.8351H199.19C198.684 31.2558 197.959 32.5751 197.014 33.7928C196.103 35.0106 195.007 36.0592 193.724 36.9387C192.476 37.7844 191.093 38.444 189.574 38.9175C188.09 39.4249 186.504 39.6786 184.817 39.6786C182.725 39.6786 180.752 39.3066 178.896 38.5624C177.04 37.7844 175.421 36.7357 174.037 35.4165C172.688 34.0972 171.608 32.5581 170.798 30.7992C170.022 29.0402 169.634 27.1628 169.634 25.167C169.634 23.1712 170.022 21.2939 170.798 19.5349C171.608 17.7759 172.688 16.2368 174.037 14.9175C175.421 13.5983 177.04 12.5666 178.896 11.8224C180.752 11.0444 182.725 10.6554 184.817 10.6554ZM191.953 22.5285C191.38 21.074 190.452 19.8901 189.17 18.9767C187.887 18.0296 186.437 17.556 184.817 17.556C183.164 17.556 181.696 18.0296 180.414 18.9767C179.166 19.8901 178.255 21.074 177.681 22.5285H191.953Z" fill="#423C3C"/>
</svg>
