<svg width="763" height="585" viewBox="0 0 763 585" fill="none" xmlns="http://www.w3.org/2000/svg">
<path d="M165.345 561.117C164.74 561.144 164.142 560.986 163.63 560.662C163.119 560.339 162.719 559.866 162.486 559.308C162.252 558.75 162.196 558.134 162.325 557.542C162.453 556.951 162.761 556.414 163.205 556.004L163.408 555.2C163.381 555.136 163.354 555.071 163.327 555.007C160.609 548.531 143.267 566.584 142.517 572.67C142.187 575.36 142.327 578.087 142.929 580.73C137.312 568.485 134.395 555.176 134.376 541.706C134.375 538.326 134.563 534.948 134.939 531.589C135.25 528.835 135.681 526.1 136.233 523.386C139.244 508.656 145.708 494.85 155.095 483.102C160.464 483.401 165.168 482.584 165.623 472.187C165.704 470.338 167.076 468.737 167.379 466.915C166.866 466.982 166.345 467.024 165.833 467.057C165.673 467.066 165.505 467.074 165.345 467.083L165.285 467.085C164.722 467.11 164.163 466.973 163.677 466.688C163.19 466.403 162.796 465.984 162.542 465.481C162.289 464.978 162.186 464.412 162.246 463.852C162.307 463.292 162.528 462.761 162.883 462.324C163.104 462.051 163.326 461.779 163.547 461.508C163.884 461.088 164.228 460.676 164.564 460.257C164.603 460.217 164.639 460.175 164.673 460.131C165.06 459.652 165.446 459.182 165.833 458.703C165.127 457.609 164.178 456.693 163.06 456.025C159.187 453.758 153.843 455.328 151.045 458.829C148.239 462.33 147.71 467.242 148.684 471.616C149.643 475.338 151.228 478.87 153.373 482.061C153.163 482.33 152.944 482.59 152.734 482.858C148.894 487.792 145.548 493.09 142.742 498.677C143.536 492.481 133.83 470.106 130.076 465.367C125.568 459.674 116.322 462.159 115.528 469.375C115.52 469.445 115.513 469.515 115.505 469.584C116.063 469.899 116.608 470.232 117.142 470.585C117.813 471.033 118.333 471.673 118.634 472.421C118.934 473.169 119.002 473.991 118.827 474.778C118.653 475.565 118.245 476.281 117.656 476.832C117.067 477.384 116.325 477.744 115.528 477.867L115.446 477.88C107.983 488.528 131.908 516.242 137.896 510.019C135.078 518.001 133.31 526.316 132.637 534.754C132.256 539.732 132.278 544.732 132.704 549.707L132.679 549.531C131.348 538.696 108.521 522.588 101.856 523.929C98.0156 524.702 94.2334 524.527 94.8165 528.397C94.8258 528.459 94.8353 528.521 94.8449 528.583C95.8795 529.004 96.8869 529.489 97.8612 530.035C98.4187 530.35 98.9645 530.683 99.4985 531.036C100.169 531.484 100.689 532.124 100.99 532.872C101.29 533.62 101.358 534.442 101.183 535.229C101.009 536.016 100.6 536.732 100.012 537.283C99.423 537.834 98.6814 538.195 97.884 538.318L97.8023 538.33C97.7435 538.339 97.693 538.347 97.6343 538.356C94.2372 550.036 119.43 568.887 134.746 562.889H134.754C136.272 569.479 138.471 575.895 141.316 582.031H164.757C164.841 581.771 164.917 581.502 164.993 581.242C162.823 581.378 160.645 581.249 158.506 580.856C160.246 578.723 161.985 576.574 163.724 574.441C163.763 574.402 163.799 574.359 163.833 574.315C164.715 573.224 165.606 572.141 166.488 571.049L166.489 571.048C166.536 567.702 166.151 564.364 165.345 561.117ZM138.501 508.349L138.514 508.332L138.501 508.365V508.349ZM133.309 555.122L133.107 554.669C133.116 554.342 133.116 554.014 133.107 553.678C133.107 553.586 133.09 553.494 133.09 553.401C133.166 553.981 133.233 554.56 133.317 555.139L133.309 555.122Z" fill="#CDF3F0"/>
<path d="M614.641 581.911L614.52 581.091C612.387 566.599 613.427 551.816 617.57 537.764C621.712 523.713 628.859 510.728 638.514 499.706C643.99 493.571 650.218 488.149 657.049 483.569L657.663 483.156L658.024 484.212C658.432 485.375 659.228 486.363 660.279 487.008C661.329 487.654 662.57 487.919 663.793 487.759C665.016 487.598 666.147 487.022 666.995 486.127C667.843 485.232 668.357 484.072 668.451 482.843L668.926 476.645L669.66 476.284C673.078 474.58 676.929 473.94 680.715 474.446C684.501 474.952 688.048 476.581 690.897 479.123C693.85 481.646 695.978 484.996 697.006 488.74C698.034 492.484 697.915 496.45 696.664 500.126C695.546 503.514 694.481 507.029 693.451 510.43C689.93 522.059 686.29 534.083 679.662 544.092C674.602 551.646 667.9 557.962 660.057 562.568C652.215 567.174 643.432 569.952 634.365 570.694L614.641 581.911Z" fill="#F2F2F2"/>
<path d="M391.522 343.676C391.721 344.868 392.178 346.001 392.863 346.996C393.547 347.992 394.441 348.825 395.483 349.438C396.524 350.05 397.688 350.427 398.891 350.542C400.094 350.657 401.307 350.507 402.446 350.102L421.199 372.095L425.888 357.577L407.342 338.965C406.535 337.098 405.07 335.592 403.227 334.732C401.383 333.872 399.287 333.718 397.338 334.299C395.388 334.88 393.719 336.155 392.647 337.884C391.575 339.612 391.175 341.673 391.522 343.676Z" fill="#9E616A"/>
<path d="M467.137 338.192C467.137 338.192 476.63 322.437 485.544 326.929C494.458 331.42 487.598 347.003 487.598 347.003L445.88 395.383C445.88 395.383 399.397 356.598 405.575 357.143C411.754 357.688 415.002 346.743 415.002 346.743L440.047 363.454L441.55 358.817L442.817 360.448L446.929 357.977L467.137 338.192Z" fill="#CDF3F0"/>
<path d="M530.321 43.841C530.339 54.8858 526.165 65.5266 518.642 73.6182C518.071 74.2394 517.47 74.8402 516.859 75.4207C494.19 57.9855 470.416 42.035 445.685 27.6693C445.991 26.8953 446.317 26.1315 446.673 25.378C450.882 16.3246 458.056 8.97784 467.011 4.55266C475.965 0.12747 486.163 -1.11103 495.917 1.042C505.671 3.19502 514.398 8.61059 520.654 16.393C526.91 24.1755 530.32 33.8587 530.321 43.841Z" fill="#FF6584"/>
<path d="M565.898 133.05L565.857 133.509C537.006 131.523 508.159 129.534 479.315 127.541C458.474 126.105 436.91 124.476 418.495 114.618C411.504 110.88 404.697 105.89 396.768 105.544C386.934 105.106 378.353 111.98 371.606 119.15C331.729 161.595 320.183 226.496 275.444 263.779C303.661 194.245 337.349 127.057 376.193 62.8439C383.367 50.9798 391.876 38.3113 405.196 34.4415C417.904 30.7448 430.908 36.1422 442.607 43.0671C445.114 44.5539 447.56 46.112 449.924 47.6599C467.952 59.4526 485.685 71.6968 503.121 84.3925C524.533 99.9635 545.458 116.183 565.898 133.05Z" fill="#F2F2F2"/>
<path d="M659.206 223.074C628.369 179.578 592.541 139.839 552.456 104.668C540.93 94.5458 529.064 84.7965 516.859 75.4207C494.19 57.9855 470.416 42.035 445.685 27.6693C437.573 22.9644 429.366 18.4463 421.063 14.1148C414.612 10.7644 407.744 7.69906 400.304 8.1777C395.1 8.62224 390.128 10.5326 385.966 13.6871C376.824 20.3574 370.771 30.7754 365.788 40.7045C361.426 49.4116 357.36 58.2918 353.212 67.121C351.449 70.8788 349.686 74.6264 347.862 78.3537C341.502 91.4092 334.994 104.393 328.336 117.306C319.755 133.947 310.926 150.461 301.849 166.85C282.782 201.302 262.662 235.132 241.488 268.341C210.365 317.152 177.067 364.482 141.596 410.332C137.244 415.944 135.451 417.247 131.038 422.818C130.019 424.121 128.205 422.288 129.214 420.995C166.014 374.516 198.054 330.604 230.36 280.887C254.716 243.401 277.734 205.083 299.414 165.934C306.374 153.377 313.188 140.742 319.857 128.03C330.649 107.448 341.068 86.6737 351.113 65.7054C353.762 60.1858 356.385 54.6459 358.98 49.0856C367.224 31.4372 379.229 5.1938 402.414 5.55023C409.232 5.65212 415.56 8.41186 421.532 11.467C427.616 14.5934 433.588 17.9133 439.55 21.2841C441.935 22.6283 444.309 23.993 446.673 25.378C456.039 30.816 465.265 36.4815 474.352 42.3745C489.516 52.2018 504.28 62.6164 518.642 73.6182C525.46 78.8425 532.176 84.1855 538.79 89.6473C580.29 123.958 617.604 163.03 649.963 206.057C653.866 211.241 657.688 216.482 661.428 221.781C662.386 223.136 660.154 224.419 659.206 223.074Z" fill="#E4E4E4"/>
<path d="M554.751 91.7068C556.098 90.2061 557.437 88.7055 558.793 87.2049C569.485 75.3883 580.958 63.709 595.64 56.9347C602.641 53.6026 610.284 51.8324 618.038 51.7467C626.038 51.9662 633.927 53.6853 641.292 56.8146C644.794 58.2124 648.218 59.7988 651.59 61.488C655.443 63.426 659.228 65.4927 662.994 67.5764C670.066 71.4866 677.045 75.5684 683.932 79.8217C697.637 88.2853 710.912 97.3949 723.758 107.151C730.417 112.21 736.939 117.435 743.324 122.826C749.262 127.834 755.08 132.976 760.778 138.252C761.996 139.376 763.815 137.558 762.597 136.435C761.095 135.037 759.576 133.648 758.058 132.276C753.767 128.4 749.408 124.598 744.98 120.871C736.905 114.062 728.621 107.516 720.128 101.234C706.922 91.4581 693.26 82.3456 679.145 73.8963C672.091 69.6773 664.94 65.6356 657.691 61.7711C655.503 60.6049 653.289 59.4644 651.049 58.3839C645.968 55.8224 640.687 53.6745 635.26 51.9612C627.572 49.4759 619.438 48.6774 611.413 49.6202C603.664 50.7464 596.199 53.3272 589.41 57.2263C574.994 65.2783 563.813 77.7293 552.932 89.8803C551.833 91.1151 553.644 92.9416 554.751 91.7068Z" fill="#E4E4E4"/>
<path d="M259.365 214.157L207.668 195.262C202.126 193.033 196.475 191.087 190.735 189.434C185.716 188.002 180.388 188.07 175.408 189.629C170.967 191.272 166.901 193.79 163.453 197.035C159.931 200.276 156.654 203.773 153.648 207.498C149.914 211.983 146.235 216.515 142.539 221.031C127.287 239.671 112.134 258.392 97.0808 277.194C82.0281 295.995 67.076 314.876 52.2246 333.838C37.3369 352.845 22.5516 371.932 7.86863 391.099C6.06994 393.447 4.27278 395.796 2.47717 398.146C1.48513 399.445 -0.751752 398.165 0.254312 396.848C15.0456 377.488 29.94 358.209 44.9375 339.008C59.9718 319.761 75.11 300.596 90.3522 281.513C105.594 262.43 120.939 243.429 136.387 224.512C140.235 219.799 144.09 215.091 147.951 210.388C151.208 206.422 154.429 202.412 158.001 198.72C164.559 191.943 172.751 185.954 182.558 185.791C188.324 185.696 193.904 187.524 199.261 189.461C205.037 191.549 210.798 193.675 216.566 195.784L260.049 211.676C261.593 212.241 260.926 214.728 259.365 214.157Z" fill="#E4E4E4"/>
<path d="M600.187 71.8035C617.742 62.7875 640.223 64.5533 656.355 75.8175C625.585 81.1223 595.151 88.2204 565.21 97.0752C577.643 89.7941 587.369 78.3863 600.187 71.8035Z" fill="#F2F2F2"/>
<path d="M656.528 75.7864L659.908 78.5315C658.765 77.5707 657.576 76.6698 656.355 75.8175C656.413 75.8075 656.47 75.7963 656.528 75.7864Z" fill="#F2F2F2"/>
<path d="M164.754 214.283C168.155 210.147 171.831 205.816 176.918 204.136L181.666 204.323C145.517 268.153 96.6956 323.928 38.1977 368.224C80.3831 316.91 122.569 265.597 164.754 214.283Z" fill="#F2F2F2"/>
<path d="M652.503 450.541L620.535 436.447V424.331L631.928 424.267C633.696 424.257 635.416 423.694 636.848 422.657C638.279 421.62 639.349 420.161 639.908 418.485L647.912 403.548C648.336 402.277 648.452 400.923 648.25 399.599C648.047 398.274 647.533 397.017 646.749 395.93C645.965 394.843 644.934 393.957 643.74 393.347C642.547 392.736 641.225 392.418 639.884 392.418L620.535 399.211V387.936H644.826C646.74 387.936 648.599 387.287 650.097 386.095C651.595 384.903 652.644 383.239 653.073 381.374L658.585 357.415C658.87 356.175 658.871 354.888 658.59 353.648C658.308 352.408 657.75 351.247 656.958 350.253C656.165 349.258 655.158 348.455 654.012 347.903C652.866 347.35 651.61 347.064 650.337 347.064H620.535V344.245C620.535 342.75 619.94 341.316 618.882 340.259C617.824 339.201 616.389 338.607 614.893 338.607C613.397 338.607 611.962 339.201 610.904 340.259C609.846 341.316 609.252 342.75 609.252 344.245V347.064H409.447V344.245C409.447 342.75 408.853 341.316 407.795 340.259C406.737 339.201 405.302 338.607 403.805 338.607C402.309 338.607 400.874 339.201 399.816 340.259C398.758 341.316 398.164 342.75 398.164 344.245V347.064H374.473C373.201 347.064 371.945 347.35 370.798 347.903C369.652 348.455 368.645 349.258 367.853 350.253C367.06 351.247 366.502 352.408 366.221 353.648C365.939 354.888 365.941 356.175 366.226 357.415L371.738 381.374C372.167 383.239 373.216 384.903 374.714 386.095C376.212 387.287 378.07 387.936 379.985 387.936H398.164V399.211L384.926 392.418C383.592 392.418 382.278 392.733 381.089 393.337C379.9 393.942 378.871 394.818 378.086 395.895C377.301 396.973 376.782 398.22 376.57 399.536C376.359 400.852 376.463 402.199 376.872 403.468L385.041 419.744C385.592 421.455 386.675 422.946 388.132 424C389.589 425.054 391.344 425.617 393.143 425.607L398.164 425.579V436.447L372.307 450.541C370.063 450.541 367.91 451.432 366.323 453.018C364.736 454.604 363.845 456.754 363.845 458.997C363.845 461.24 364.736 463.391 366.323 464.977C367.91 466.563 370.063 467.453 372.307 467.453H398.164V577.016C398.164 578.511 398.758 579.945 399.816 581.003C400.874 582.06 402.309 582.654 403.806 582.654C405.302 582.654 406.737 582.06 407.795 581.003C408.853 579.945 409.447 578.511 409.447 577.016V467.454H609.252V578.148C609.252 579.644 609.846 581.078 610.904 582.135C611.962 583.192 613.397 583.786 614.893 583.786C616.389 583.786 617.824 583.192 618.882 582.135C619.94 581.078 620.535 579.644 620.535 578.148V467.454H652.504C654.748 467.454 656.9 466.563 658.487 464.977C660.074 463.391 660.966 461.24 660.966 458.997C660.966 456.755 660.074 454.604 658.487 453.018C656.9 451.432 654.748 450.541 652.503 450.541ZM409.447 387.936H609.252V399.211H409.447V387.936ZM409.447 436.447V425.516L609.252 424.394V436.447L409.447 436.447Z" fill="#CCCCCC"/>
<path d="M484.532 286.852C485.971 283.529 488.155 280.581 490.916 278.236C493.676 275.891 496.94 274.211 500.453 273.326C508.254 271.298 519.677 274.387 525.541 278.822C536.269 286.934 538.887 314.803 531.517 323.61C530.051 323.551 524.992 323.507 523.508 323.465L521.41 318.157V323.413C509.829 323.141 497.772 323.311 485.708 323.487C484.627 317.252 482.051 292.85 484.532 286.852Z" fill="#2F2E41"/>
<path d="M500.66 316.888C509.9 316.888 517.39 309.403 517.39 300.17C517.39 290.937 509.9 283.452 500.66 283.452C491.42 283.452 483.93 290.937 483.93 300.17C483.93 309.403 491.42 316.888 500.66 316.888Z" fill="#9E616A"/>
<path d="M489.164 278.4C492.379 276.442 496.061 275.383 499.825 275.333C503.59 275.283 507.299 276.245 510.564 278.118C513.829 279.991 516.53 282.706 518.386 285.98C520.242 289.253 521.183 292.965 521.112 296.726C511.993 299.055 502.274 300.03 491.976 297.287L489.621 291.53L488.234 297.292C485.083 299.506 482.042 299.502 479.111 297.28C478.986 293.529 479.849 289.811 481.614 286.498C483.378 283.185 485.982 280.393 489.164 278.4Z" fill="#2F2E41"/>
<path d="M534.837 280.06C533.184 277.526 531.361 274.849 528.554 273.717C525.747 272.585 521.767 273.939 521.386 276.939C521.101 279.182 522.813 281.108 524.102 282.966C525.392 284.824 526.23 287.628 524.546 289.138L523.598 289.626C524.504 290.795 525.671 291.735 527.006 292.372C528.342 293.009 529.808 293.324 531.287 293.292C532.764 293.213 534.176 292.655 535.309 291.703C536.441 290.752 537.233 289.458 537.565 288.016C538.049 285.183 536.408 282.467 534.837 280.06Z" fill="#2F2E41"/>
<path d="M433.264 561.774L423.867 559.041L429.941 521.519L443.811 525.552L433.264 561.774Z" fill="#9E616A"/>
<path d="M432.277 580.827L425.609 578.888L426.25 572.251L421.37 577.656L403.684 572.514C402.836 572.268 402.089 571.757 401.552 571.057C401.016 570.356 400.717 569.503 400.7 568.62C400.683 567.738 400.949 566.874 401.459 566.153C401.968 565.433 402.695 564.894 403.533 564.616L420.494 558.974L422.346 552.614L436.944 557.818L432.277 580.827Z" fill="#2F2E41"/>
<path d="M548.873 558.373L539.562 561.383L523.511 526.923L537.255 522.481L548.873 558.373Z" fill="#9E616A"/>
<path d="M558.759 574.695L552.151 576.831L548.954 570.979L547.951 578.189L530.426 583.855C529.586 584.127 528.681 584.123 527.844 583.844C527.006 583.566 526.279 583.027 525.77 582.306C525.26 581.585 524.995 580.721 525.012 579.839C525.029 578.957 525.328 578.103 525.864 577.403L536.732 563.22L534.692 556.917L549.697 553.036L558.759 574.695Z" fill="#2F2E41"/>
<path d="M488.118 457.819L482.369 482.62L525.434 537.293L541.919 528.85C529.071 500.251 527.939 496.855 514.195 484.519L514.336 484.307C524.214 469.404 534.886 455.116 536.326 437.299C536.365 436.812 534.158 418.987 534.209 418.502C535.44 406.85 477.891 403.153 477.891 403.153C477.891 403.153 468.109 420.382 453.561 433.594L424.132 462.749L424.926 543.063L438.774 546.424C448.956 527.04 453.907 504.309 455.329 479.322L480.911 462.174L488.118 457.819Z" fill="#2F2E41"/>
<path d="M530.76 464.162C530.014 463.332 529.459 462.349 529.135 461.281C528.81 460.214 528.724 459.088 528.882 457.984C529.04 456.88 529.438 455.823 530.049 454.889C530.659 453.955 531.468 453.167 532.416 452.579L520.068 390.845L533.258 395.833L543.284 455.469C544.166 457.127 544.41 459.052 543.968 460.877C543.526 462.703 542.429 464.303 540.886 465.374C539.342 466.446 537.458 466.914 535.592 466.691C533.726 466.468 532.006 465.568 530.76 464.162Z" fill="#9E616A"/>
<path d="M516.07 334.886L524.711 329.036C524.711 329.036 532.077 328.892 532.7 342.185C533.322 355.478 534.671 381.391 534.671 381.391L544.383 440.967L526.562 443.931L516.183 379.644L508.97 360.341L516.07 334.886Z" fill="#CDF3F0"/>
<path d="M484.414 369.251L481.958 375.631L482.449 382.012L530.508 398.645L528.123 370.723L522.721 364.344L484.414 369.251Z" fill="#FFB6B6"/>
<path d="M469.181 416.112L470.746 400.474C470.908 399.836 471.269 399.266 471.775 398.846C472.282 398.425 472.909 398.175 473.566 398.133C474.218 390.684 476.962 358.548 477.125 357.147L477.132 357.087L478.379 330.459C478.425 329.492 478.825 328.575 479.503 327.884C480.182 327.194 481.092 326.777 482.059 326.714L488.647 326.283C488.738 326.28 488.823 326.242 488.886 326.177C488.949 326.112 488.984 326.025 488.984 325.935C488.984 325.208 489.127 324.488 489.406 323.816C489.684 323.145 490.092 322.534 490.607 322.02C491.121 321.506 491.732 321.098 492.404 320.82C493.077 320.542 493.797 320.398 494.525 320.398H514.031C515.295 320.399 516.515 320.86 517.462 321.696C518.409 322.531 519.019 323.683 519.176 324.936C519.185 325.022 519.226 325.102 519.291 325.16C519.356 325.217 519.44 325.248 519.527 325.246H519.529C521.745 325.2 523.905 325.95 525.615 327.359C527.326 328.769 528.474 330.744 528.852 332.927C531.519 348.432 536.863 383.623 534.221 403.187C533.301 409.997 535.284 404.603 535.632 410.302C535.666 410.852 535.592 411.404 535.412 411.926C535.233 412.448 534.952 412.929 534.587 413.343C535.336 413.615 535.947 414.171 536.288 414.891C536.629 415.61 536.672 416.435 536.408 417.187L536.751 417.102C536.651 417.5 536.473 417.875 536.227 418.204C535.982 418.534 535.674 418.811 535.321 419.022C534.968 419.233 534.578 419.372 534.171 419.431C533.764 419.491 533.35 419.47 532.951 419.37L475.823 414.208C474.146 413.786 468.758 417.786 469.181 416.112Z" fill="#CDF3F0"/>
</svg>
