<svg width="45" height="45" viewBox="0 0 45 45" fill="none" xmlns="http://www.w3.org/2000/svg">
<path d="M0 38C0 38.5523 0.447715 39 1 39C1.55228 39 2 38.5523 2 38H0ZM43 38C43 38.5523 43.4477 39 44 39C44.5523 39 45 38.5523 45 38H43ZM44 30H45C45 29.4477 44.5523 29 44 29V30ZM44 39.9994L43 39.9994L43 39.9999L44 39.9994ZM1 30V29C0.447715 29 0 29.4477 0 30H1ZM12.9444 39.9994L11.9444 39.9994L11.9444 39.9999L12.9444 39.9994ZM2 38V23.1996H0V38H2ZM2 23.1996C2 11.4608 11.2082 2 22.5 2V0C10.0437 0 0 10.4171 0 23.1996H2ZM22.5 2C33.7918 2 43 11.4608 43 23.1996H45C45 10.4171 34.9563 0 22.5 0V2ZM43 23.1996V38H45V23.1996H43ZM39.2222 43H36.8333V45H39.2222V43ZM36.8333 43C34.5775 43 33.0556 41.4943 33.0556 40.0004H31.0556C31.0556 42.9172 33.8208 45 36.8333 45V43ZM33.0556 40.0004V33.9996H31.0556V40.0004H33.0556ZM33.0556 33.9996C33.0556 32.5057 34.5775 31 36.8333 31V29C33.8208 29 31.0556 31.0828 31.0556 33.9996H33.0556ZM36.8333 31H44V29H36.8333V31ZM43 30V39.9994H45V30H43ZM43 39.9999C43.0007 41.4943 41.4792 43 39.2222 43V45C42.2357 45 45.0013 42.9172 45 39.999L43 39.9999ZM8.16667 43H5.77778V45H8.16667V43ZM5.77778 43C3.5221 43 2 41.4944 2 39.9994H0C0 42.9171 2.76503 45 5.77778 45V43ZM2 39.9994V30H0V39.9994H2ZM1 31H8.16667V29H1V31ZM8.16667 31C10.4225 31 11.9444 32.5057 11.9444 33.9996H13.9444C13.9444 31.0828 11.1792 29 8.16667 29V31ZM11.9444 33.9996V39.9994H13.9444V33.9996H11.9444ZM11.9444 39.9999C11.9451 41.4943 10.4237 43 8.16667 43V45C11.1801 45 13.9458 42.9172 13.9444 39.999L11.9444 39.9999Z" fill="#28B0A6"/>
</svg>
