<svg width="42" height="42" viewBox="0 0 42 42" fill="none" xmlns="http://www.w3.org/2000/svg">
<path d="M15.887 14.797C16.2954 13.6348 17.1021 12.6547 18.1641 12.0304C19.2261 11.4061 20.4748 11.1779 21.6889 11.3862C22.9031 11.5945 24.0043 12.2259 24.7974 13.1686C25.5905 14.1112 26.0243 15.3041 26.022 16.536C26.022 20.013 20.807 21.751 20.807 21.751M20.949 31.132H20.966M41 21C41 32.0457 32.0457 41 21 41C9.9543 41 1 32.0457 1 21C1 9.9543 9.9543 1 21 1C32.0457 1 41 9.9543 41 21Z" stroke="#1D293F" stroke-width="2" stroke-miterlimit="10" stroke-linecap="round" stroke-linejoin="round"/>
</svg>
