<svg xmlns="http://www.w3.org/2000/svg" width="88" height="88" viewBox="0 0 88 88"><g fill="none" stroke="#fff" stroke-width="2"><circle cx="44" cy="44" r="44" stroke="none"/><circle cx="44" cy="44" r="43" fill="none"/></g><rect width="40" height="40" transform="translate(24 24)" fill="#fff" opacity="0"/><g transform="translate(27 24)"><path d="M39.05,36.747h1.621a3.055,3.055,0,0,0,2.953,2.287h5.718a.762.762,0,0,0,0-1.525H46.673V33.7a6.1,6.1,0,0,1,12.2,0v3.812H56.2a.762.762,0,1,0,0,1.525h5.718a3.055,3.055,0,0,0,2.953-2.287H66.5a3.053,3.053,0,0,0,3.05-3.05V28.666a5.344,5.344,0,0,0-4.574-5.281V12.864a3.055,3.055,0,0,0,2.287-2.953V7.624a3.053,3.053,0,0,0-3.05-3.05h-6.1V3.05A3.053,3.053,0,0,0,55.06,0H50.485a3.053,3.053,0,0,0-3.05,3.05V4.574h-6.1a3.053,3.053,0,0,0-3.05,3.05V9.911a3.055,3.055,0,0,0,2.287,2.953v10.52A5.344,5.344,0,0,0,36,28.666V33.7A3.053,3.053,0,0,0,39.05,36.747ZM42.1,12.96H63.446v1.982a3.816,3.816,0,0,1-3.812,3.812H55.822V17.23a.762.762,0,0,0-.762-.762H50.485a.762.762,0,0,0-.762.762v1.525H45.911A3.816,3.816,0,0,1,42.1,14.943ZM58.871,6.1v5.337h-12.2V6.1ZM54.3,19.517a1.525,1.525,0,1,1-3.05,0V17.992H54.3Zm-1.525,6.556a7.617,7.617,0,0,0-6.1,3.055V20.279h3.146a3.05,3.05,0,0,0,5.906,0h3.146v8.842A7.6,7.6,0,0,0,52.772,26.073ZM68.02,28.666V33.7A1.526,1.526,0,0,1,66.5,35.222H64.97V24.93a3.818,3.818,0,0,1,3.05,3.735Zm-4.574,7.319a1.526,1.526,0,0,1-1.525,1.525H60.4V20.224a5.326,5.326,0,0,0,3.05-1.552ZM65.733,7.624V9.911a1.526,1.526,0,0,1-1.525,1.525H60.4V6.1h3.812A1.526,1.526,0,0,1,65.733,7.624ZM48.96,3.05a1.526,1.526,0,0,1,1.525-1.525H55.06A1.526,1.526,0,0,1,56.584,3.05V4.574H48.96ZM39.812,9.911V7.624A1.526,1.526,0,0,1,41.337,6.1h3.812v5.337H41.337A1.526,1.526,0,0,1,39.812,9.911Zm5.337,10.313V37.509H43.624A1.526,1.526,0,0,1,42.1,35.984V18.672a5.326,5.326,0,0,0,3.05,1.552Zm-7.624,8.442a3.818,3.818,0,0,1,3.05-3.735V35.222H39.05A1.526,1.526,0,0,1,37.525,33.7Z" transform="translate(-36)" fill="#fff"/><path d="M222.1,402.762a.762.762,0,0,0-.762-.762h-4.574a.762.762,0,1,0,0,1.525h4.574A.762.762,0,0,0,222.1,402.762Z" transform="translate(-202.277 -371.352)" fill="#fff"/><circle cx="0.396" cy="0.396" r="0.396" transform="translate(16.322 37.739)" fill="#fff"/></g></svg>