<svg xmlns="http://www.w3.org/2000/svg" width="26" height="26" viewBox="0 0 26 26"><defs><style>.a,.b{fill:#1c1919;}.a{opacity:0;}</style></defs><g transform="translate(10659 1193)"><rect class="a" width="26" height="26" transform="translate(-10659 -1193)"/><g transform="translate(-10657.001 -1191)"><path class="b" d="M21.262,19.142l-4.586-4.587A9.2,9.2,0,0,0,9.2,0,9.2,9.2,0,0,0,0,9.2a9.19,9.19,0,0,0,14.554,7.475l4.586,4.587a1.5,1.5,0,1,0,2.121-2.121ZM4.818,13.586A6.2,6.2,0,1,1,9.2,15.4,6.162,6.162,0,0,1,4.818,13.586Z"/></g></g></svg>