<svg width="24" height="24" viewBox="0 0 24 24" fill="none" xmlns="http://www.w3.org/2000/svg">
    <path d="M17.53 13.953a.921.921 0 0 0-.272.817l.756 4.143a.906.906 0 0 1-.383.91.943.943 0 0 1-.994.067l-3.764-1.946a.968.968 0 0 0-.425-.11h-.23a.696.696 0 0 0-.23.076l-3.765 1.954c-.186.093-.397.126-.603.093a.937.937 0 0 1-.757-1.07l.757-4.143a.937.937 0 0 0-.272-.825L4.28 10.972a.903.903 0 0 1-.23-.951.952.952 0 0 1 .756-.632l4.224-.607a.945.945 0 0 0 .748-.513l1.861-3.78a.878.878 0 0 1 .17-.228l.077-.059a.572.572 0 0 1 .137-.11l.093-.033L12.26 4h.358c.32.033.6.222.748.505l1.886 3.764c.136.276.4.467.705.513l4.224.607c.357.05.655.295.773.632a.909.909 0 0 1-.246.951l-3.179 2.981z" fill="#F5A623"/>
</svg>
