<svg width="670" height="508" viewBox="0 0 670 508" fill="none" xmlns="http://www.w3.org/2000/svg">
<path d="M212.333 455.918L226.911 469.677C227.29 470.035 227.593 470.468 227.799 470.947C228.006 471.427 228.113 471.943 228.114 472.465V494.384C228.114 495.337 227.759 496.256 227.118 496.962C226.476 497.667 225.595 498.108 224.646 498.198L195.955 500.987L180.138 486.055C179.756 485.698 179.451 485.266 179.243 484.786C179.035 484.306 178.928 483.789 178.928 483.266V461.215C178.927 460.258 179.284 459.336 179.928 458.629C180.573 457.922 181.458 457.481 182.41 457.393L209.345 454.892C209.887 454.842 210.434 454.908 210.949 455.084C211.464 455.261 211.936 455.545 212.333 455.918Z" fill="#2F004F"/>
<path d="M213.86 452.096L230.969 468.245C231.414 468.667 231.769 469.174 232.011 469.738C232.254 470.301 232.378 470.908 232.378 471.521V497.239C232.379 498.357 231.963 499.436 231.212 500.264C230.46 501.092 229.426 501.61 228.313 501.717L194.642 504.993L176.073 487.464C175.627 487.042 175.272 486.535 175.03 485.971C174.788 485.408 174.663 484.801 174.664 484.188V458.308C174.664 457.186 175.084 456.106 175.84 455.277C176.596 454.449 177.634 453.933 178.751 453.83L210.356 450.879C210.993 450.82 211.635 450.899 212.24 451.109C212.844 451.319 213.396 451.655 213.86 452.096Z" fill="#2F004F"/>
<path d="M123.995 309.209V331.253C123.996 331.775 124.103 332.291 124.31 332.771C124.517 333.25 124.819 333.683 125.198 334.042L141.03 348.974L169.736 346.185C170.565 346.11 171.346 345.756 171.949 345.182C167.205 344.606 163.214 342.4 161.989 340.017C160.108 336.329 160.61 329.895 168.629 328.774C170.181 328.567 171.717 328.251 173.225 327.83V320.445C173.226 319.924 173.12 319.408 172.913 318.929C172.706 318.451 172.403 318.02 172.023 317.664L157.452 303.89C157.056 303.527 156.59 303.249 156.083 303.073C155.575 302.898 155.036 302.83 154.501 302.872L127.566 305.38C126.596 305.446 125.687 305.878 125.024 306.589C124.361 307.3 123.993 308.237 123.995 309.209Z" fill="#2F004F"/>
<path d="M119.724 306.302V332.175C119.725 332.792 119.852 333.401 120.097 333.967C120.341 334.533 120.699 335.042 121.147 335.465L139.702 352.98L173.373 349.711C174.487 349.603 175.52 349.084 176.272 348.254C177.024 347.425 177.439 346.345 177.438 345.226V345.123C175.606 345.415 173.742 345.434 171.904 345.182C167.161 344.606 163.169 342.4 161.945 340.017C160.064 336.329 160.565 329.895 168.585 328.774C170.137 328.567 171.672 328.251 173.181 327.83C176.781 326.731 177.002 325.528 177.002 325.528L177.445 325.808V319.538C177.45 318.925 177.328 318.319 177.087 317.756C176.845 317.194 176.49 316.688 176.043 316.269L158.927 300.113C158.462 299.674 157.91 299.339 157.306 299.129C156.702 298.919 156.06 298.839 155.423 298.895L123.818 301.846C122.706 301.952 121.672 302.466 120.916 303.289C120.16 304.111 119.735 305.185 119.724 306.302Z" fill="#2F004F"/>
<path d="M118.661 375.997L135.888 392.228C136.337 392.652 136.695 393.163 136.94 393.73C137.185 394.297 137.311 394.908 137.312 395.526V421.428C137.313 422.555 136.894 423.642 136.137 424.477C135.38 425.312 134.339 425.835 133.217 425.943L99.2806 429.241L80.5787 411.594C80.1294 411.17 79.7714 410.659 79.5265 410.092C79.2817 409.525 79.1552 408.914 79.1548 408.296V382.253C79.1538 381.123 79.5756 380.033 80.3373 379.197C81.099 378.362 82.1456 377.842 83.2715 377.738L115.098 374.787C115.744 374.722 116.396 374.796 117.011 375.005C117.626 375.214 118.189 375.552 118.661 375.997Z" fill="#2F004F"/>
<path d="M120.469 371.482L140.69 390.568C141.216 391.065 141.635 391.664 141.922 392.329C142.209 392.994 142.357 393.71 142.358 394.434V424.829C142.357 426.151 141.864 427.426 140.974 428.405C140.085 429.384 138.864 429.998 137.548 430.126L97.7534 433.992L75.8128 413.276C75.2847 412.78 74.8642 412.181 74.5773 411.516C74.2905 410.851 74.1435 410.134 74.1455 409.41V378.823C74.1549 377.501 74.6566 376.229 75.5528 375.257C76.4489 374.284 77.6752 373.68 78.9925 373.563L116.345 370.088C117.091 370.018 117.845 370.106 118.555 370.346C119.266 370.586 119.918 370.973 120.469 371.482Z" fill="#2F004F"/>
<path d="M71.9618 391.815L89.8891 408.739C90.3554 409.18 90.7267 409.712 90.9804 410.302C91.2341 410.892 91.3649 411.527 91.3646 412.169V439.119C91.3646 440.292 90.928 441.423 90.1397 442.292C89.3514 443.161 88.268 443.705 87.1004 443.819L51.8139 447.249L32.3595 428.894C31.8932 428.452 31.5219 427.921 31.2682 427.331C31.0145 426.741 30.8838 426.105 30.884 425.463V398.322C30.8862 397.146 31.3265 396.012 32.1191 395.144C32.9116 394.275 33.9994 393.732 35.1703 393.622L68.2878 390.531C68.9564 390.47 69.6302 390.553 70.264 390.775C70.8977 390.996 71.4766 391.351 71.9618 391.815Z" fill="#2F004F"/>
<path d="M73.8283 387.115L94.8688 406.975C95.4167 407.493 95.8531 408.118 96.1512 408.811C96.4493 409.503 96.6029 410.249 96.6025 411.003V442.638C96.6034 444.012 96.0922 445.337 95.1687 446.355C94.2453 447.373 92.9758 448.01 91.608 448.142L50.2203 452.17L27.3501 430.613C26.8022 430.095 26.3659 429.47 26.0678 428.778C25.7697 428.085 25.6161 427.339 25.6164 426.585V394.751C25.6178 393.372 26.1334 392.043 27.0625 391.024C27.9916 390.004 29.2674 389.368 30.6405 389.24L69.5125 385.625C70.2964 385.553 71.0866 385.649 71.8307 385.905C72.5749 386.162 73.2558 386.575 73.8283 387.115Z" fill="#2F004F"/>
<path d="M123.737 411.372L148.872 435.098C149.528 435.716 150.05 436.461 150.407 437.289C150.764 438.116 150.947 439.008 150.945 439.908V477.696C150.939 479.336 150.326 480.916 149.224 482.132C148.122 483.347 146.609 484.111 144.977 484.277L95.5033 489.087L68.2066 463.332C67.5529 462.713 67.0321 461.967 66.6757 461.14C66.3193 460.313 66.1348 459.422 66.1335 458.522V420.498C66.1406 418.852 66.759 417.267 67.8687 416.051C68.9783 414.835 70.5001 414.075 72.1388 413.918L118.573 409.594C119.51 409.508 120.456 409.621 121.346 409.928C122.236 410.234 123.051 410.727 123.737 411.372Z" fill="#2F004F"/>
<path d="M126.371 404.784L155.881 432.627C156.649 433.352 157.262 434.227 157.68 435.198C158.099 436.168 158.315 437.214 158.315 438.271V482.617C158.317 484.545 157.6 486.405 156.304 487.833C155.008 489.262 153.226 490.156 151.307 490.341L93.2532 495.985L61.2349 465.737C60.4662 465.012 59.8537 464.137 59.4351 463.166C59.0165 462.196 58.8005 461.15 58.8003 460.093V415.496C58.7994 413.563 59.5207 411.699 60.8227 410.271C62.1247 408.842 63.9135 407.951 65.8384 407.772L120.306 402.704C121.407 402.598 122.518 402.729 123.564 403.088C124.61 403.447 125.567 404.025 126.371 404.784Z" fill="#2F004F"/>
<path d="M301.055 86.2025C280.398 70.5328 249.11 56.4639 207.25 63.7602" stroke="#6938EF" stroke-width="4.59" stroke-miterlimit="10"/>
<path d="M290.564 98.4491C272.179 85.6787 247.14 75.874 214.487 77.9766" stroke="white" stroke-width="4.59" stroke-linecap="round" stroke-linejoin="round"/>
<path d="M146.275 91.8389C126.09 110.482 115.482 136.76 111.601 163.541C109.03 181.352 109.007 199.439 111.535 217.256C111.728 218.302 111.858 219.359 111.926 220.421C110.619 219.832 109.267 219.351 107.883 218.982C91.1948 214.696 73.4447 214.003 57.2954 220.598C43.861 226.08 32.4258 235.692 23.6909 247.157C12.0128 262.579 4.94966 280.998 3.32167 300.275C0.370681 337.162 18.0103 366.908 44.4659 387.89L44.7684 388.133" stroke="#8700E0" stroke-width="4.59" stroke-linejoin="round"/>
<path d="M149.499 109.589C123.339 140.331 121.679 181.667 123.988 221.063C124.04 221.926 124.364 224.213 124.667 226.537" stroke="white" stroke-width="4.59" stroke-linecap="round" stroke-linejoin="round"/>
<path d="M114.013 230.986C94.7139 229.067 73.2898 228.499 56.8749 238.09C40.6444 247.578 28.5601 262.915 21.6031 280.282C13.7019 299.995 12.4329 323.071 21.2638 342.71C31.1717 364.695 47.5793 380.431 66.1484 395.164C66.2 395.201 63.9351 395.703 61.5743 396.234" stroke="white" stroke-width="4.59" stroke-linecap="round" stroke-linejoin="round"/>
<path d="M449.858 457.607C453.99 459.095 458.317 459.972 462.703 460.211C524.991 464.04 583.442 429.964 624.609 391.815C626.49 390.074 628.297 388.288 630.039 386.481" stroke="black" stroke-width="4.59" stroke-miterlimit="10"/>
<path d="M389.939 433.136C386.338 438.64 377.891 436.441 377.891 436.441C330.779 426.777 344.523 364.4 384.376 335.451" stroke="black" stroke-width="4.59" stroke-miterlimit="10"/>
<path d="M335.065 284.295C352.144 300.673 367.393 310.611 381.683 316.498L375.781 275.236C440.15 236.74 457.28 279.662 457.28 279.662C459.744 283.69 460.888 331.482 461.212 347.793C461.294 347.793 463.337 347.793 463.426 347.793C504.002 345.624 540.675 308.508 540.675 308.508C520.173 257.028 446.981 193.419 446.981 193.419C396.18 157.794 357.404 169.775 357.404 169.775C369.348 170.638 353.073 203.711 353.073 203.711C329.089 224.538 320.236 193.434 320.236 193.434C297.027 248.987 335.065 284.295 335.065 284.295Z" fill="#353642"/>
<path d="M293.094 260.267C293.094 260.267 297.307 314.388 333.921 312.595C333.921 312.595 347.651 297.744 347.304 286.449C346.957 275.155 316.319 204.618 316.319 204.618C316.319 204.618 296.459 254.151 293.094 260.267Z" fill="#353642"/>
<path d="M626.675 389.668V389.852L623.546 392.803C623.546 392.803 624.845 394.006 626.675 395.754C629.057 397.968 632.34 401.022 634.79 403.353C639.032 407.381 660.722 429.064 666.513 409.344C665.369 402.446 660.987 388.259 644.189 371.025C620.3 346.473 623.628 349.52 617.63 349.925C614.863 350.102 611.278 351.725 608.209 353.43C615.97 356.661 627.737 365.625 626.675 389.668Z" fill="#2F004F"/>
<path d="M601.724 357.509C601.724 357.509 625.206 359.723 626.675 389.668V389.852C626.77 391.697 626.77 393.637 626.675 395.703C629.057 397.916 632.34 400.97 634.79 403.301C639.032 407.329 660.722 429.012 666.513 409.292C665.369 402.394 660.987 388.207 644.189 370.973C620.3 346.421 623.628 349.468 617.63 349.874C614.863 350.051 611.278 351.674 608.209 353.378C605.977 354.643 603.813 356.022 601.724 357.509Z" fill="#2F004F"/>
<path d="M381.838 317.745C355.279 301.094 312.667 279.773 312.77 231.908C312.77 220.539 313.943 211.251 316.459 202.457L316.702 201.616C317.581 198.769 318.766 196.026 320.236 193.434" stroke="black" stroke-width="4.59" stroke-miterlimit="10"/>
<path d="M509.948 400.601C516.094 395.371 521.641 390.324 525.33 386.842L525.389 386.783C528.296 384.076 530.037 382.357 530.037 382.357C532.508 378.985 534.707 375.717 536.677 372.574C536.716 372.527 536.743 372.471 536.758 372.412C551.085 349.247 551.948 330.788 538.602 303.632C538.525 303.435 538.436 303.243 538.337 303.056C536.861 300.105 535.231 297.021 533.431 293.834C506.717 246.618 428.338 158.642 360.724 169.767" stroke="black" stroke-width="4.59" stroke-miterlimit="10"/>
<path d="M624.587 391.793C638.604 409.189 648.438 415.364 655.085 416.728C661.732 418.093 667.856 412.199 666.889 405.382C663.805 383.84 638.737 358.07 626.402 346.546C624.512 344.769 622.088 343.668 619.506 343.414C616.925 343.161 614.332 343.769 612.134 345.145L605.959 348.988C587.714 360.365 568.673 371.46 549.528 381.685C531.977 391.07 512.693 403.132 491.918 400.402" stroke="black" stroke-width="4.59" stroke-miterlimit="10"/>
<path d="M373.162 230.233C372.923 238.797 373.143 247.367 373.819 255.907C376.157 286.811 382.473 317.295 385.947 348.074C388.161 367.771 389.518 387.558 389.784 407.381C390.005 424.025 390.049 436.721 389.555 453.365C389.238 464.077 383.181 470.916 373.959 475.497C366.19 479.348 360.775 478.566 355.936 486.335C345.984 502.344 365.526 503.48 373.479 501.37C395.789 495.468 428.611 492.23 441.352 470.045C451.511 452.34 452.802 440.764 455.369 420.978C458.173 399.539 460.534 378.011 461.035 356.381C461.81 321.552 459.11 265.527 446.627 232.586" stroke="black" stroke-width="4.59" stroke-miterlimit="10"/>
<path d="M94.4853 395.422L94.6033 395.54L97.3699 395.26L97.2666 395.164L94.4853 395.422Z" fill="#2F004F"/>
<path d="M138.374 391.652L115.644 393.902L138.374 391.837V391.652Z" fill="#2F004F"/>
<path d="M94.4853 395.422L94.6033 395.54L97.3699 395.26L97.6724 395.54L98.9929 395.422L98.6905 395.142L98.5946 395.039L97.2666 395.164L94.4853 395.422Z" fill="#2F004F"/>
<path d="M94.4853 395.422L94.6033 395.54L97.3698 395.26L98.6904 395.142L98.5945 395.039L97.2666 395.164L94.4853 395.422Z" fill="#2F004F"/>
<path d="M152.524 434.892L118.92 438.175L152.524 435.157V434.892Z" fill="#2F004F"/>
<path d="M87.6168 440.41L87.7938 440.587L91.8883 440.174L92.331 440.587L94.286 440.41L93.8434 439.997L93.6958 439.849L91.7334 440.027L87.6168 440.41Z" fill="#2F004F"/>
<path d="M87.6169 440.41L87.794 440.587L91.8885 440.174L93.8435 439.997L93.6959 439.849L91.7336 440.027L87.6169 440.41Z" fill="#2F004F"/>
<path d="M316.717 201.608C316.717 201.608 295.013 274.011 269.627 290.876C245.709 306.76 213.595 299.869 188.371 291.193C181.407 288.796 174.406 286.457 166.976 286.568C156.523 286.715 135.216 289.032 132.45 301.197" stroke="black" stroke-width="4.59" stroke-miterlimit="10"/>
<path d="M345.246 293.48C307.79 369.328 241.378 354.197 207.191 340.49C204.094 339.229 200.735 338.748 197.409 339.088C194.103 339.449 191.507 340.851 188.43 342.039C183.199 344.105 177.29 345.587 171.617 345.204C165.944 344.82 159.031 340.497 161.421 333.806C163.325 328.472 169.256 328.855 173.801 327.83C178.345 326.804 179.437 320.179 175.188 318.032C175.135 318.016 175.088 317.988 175.047 317.951" stroke="black" stroke-width="4.59" stroke-miterlimit="10"/>
<path d="M174.664 454.221L194.642 473.1L232.378 469.588L212.377 450.716L174.664 454.221Z" stroke="black" stroke-width="4.59" stroke-linecap="square" stroke-linejoin="round"/>
<path d="M194.642 473.1V505L232.378 501.333V469.588L194.642 473.1Z" stroke="black" stroke-width="4.59" stroke-linecap="square" stroke-linejoin="round"/>
<path d="M174.664 454.221V486.143L194.642 505V473.1L174.664 454.221Z" stroke="black" stroke-width="4.59" stroke-linecap="square" stroke-linejoin="round"/>
<path d="M58.4906 408.731L92.6778 441.037L157.231 435.025L142.122 420.757V428.805L97.6723 433.136L74.1455 410.915V407.263L58.4906 408.731Z" stroke="black" stroke-width="4.59" stroke-linecap="square" stroke-linejoin="round"/>
<path d="M92.6778 441.03V495.601L157.231 489.33V435.032L92.6778 441.03Z" stroke="black" stroke-width="4.59" stroke-linecap="square" stroke-linejoin="round"/>
<path d="M58.4979 408.739V463.347L92.6777 495.601V441.03L58.4979 408.739Z" stroke="black" stroke-width="4.59" stroke-linecap="square" stroke-linejoin="round"/>
<path d="M74.1455 373.319L97.6723 395.54L142.122 391.416L118.573 369.188L74.1455 373.319Z" stroke="black" stroke-width="4.59" stroke-linecap="square" stroke-linejoin="round"/>
<path d="M97.6723 403.7V395.54L142.122 391.416V425.722" stroke="black" stroke-width="4.59" stroke-linecap="square" stroke-linejoin="round"/>
<path d="M74.1456 373.319V410.915L97.6724 433.136V395.54L74.1456 373.319Z" stroke="black" stroke-width="4.59" stroke-linecap="square" stroke-linejoin="round"/>
<path d="M73.489 386.555L72.4783 385.603L25.5281 389.97L50.3975 413.482L57.3692 412.826" stroke="black" stroke-width="4.59" stroke-linecap="square" stroke-linejoin="round"/>
<path d="M57.7822 412.781L50.3974 413.482V453.181L58.4905 452.399" stroke="black" stroke-width="4.59" stroke-linecap="square" stroke-linejoin="round"/>
<path d="M25.5353 389.97V429.705L50.4048 453.181V413.468L25.5353 389.97Z" stroke="black" stroke-width="4.59" stroke-linecap="square" stroke-linejoin="round"/>
<path d="M119.731 302.37L139.709 321.249L177.445 317.737L157.445 298.858L119.731 302.37Z" stroke="black" stroke-width="4.59" stroke-linecap="square" stroke-linejoin="round"/>
<path d="M177.452 345.019V349.49L139.717 353.157V321.256L175.047 317.966L177.452 317.745V320.511V323.381" stroke="black" stroke-width="4.59" stroke-linecap="square" stroke-linejoin="round"/>
<path d="M119.731 302.37V334.292L139.709 353.149V321.249L119.731 302.37Z" stroke="black" stroke-width="4.59" stroke-linecap="square" stroke-linejoin="round"/>
<path d="M312.77 165.584C309.339 170.18 303.319 171.095 299.328 167.93" stroke="black" stroke-width="4.59" stroke-miterlimit="10"/>
<path d="M258.228 119.777C259.707 123.455 262.305 126.575 265.655 128.693C269.005 130.812 272.937 131.822 276.893 131.581C276.98 129.964 277.459 128.392 278.288 127C281.836 121.216 285.171 130.549 298.023 121.526C315.824 108.984 323.977 113.411 323.977 113.411C324.714 113.794 325.297 118.236 325.496 119.01C326.714 123.51 327.924 127.989 329.185 132.481C329.923 135.226 330.661 137.948 331.398 140.67C331.588 140.166 331.807 139.673 332.055 139.195C332.866 132.71 334.866 124.905 342.125 127.029C343.596 127.487 344.939 128.286 346.043 129.361C351.421 134.569 348.883 140.774 344.84 145.695C343.865 147.18 342.732 148.555 341.461 149.796C342.472 151.272 346.589 157.174 346.589 157.174C347.016 157.764 356.128 143.629 356.747 142.139C357.464 138.625 357.586 135.017 357.109 131.463C355.065 116.856 346.552 100.795 333.501 94.2366C330.255 92.6135 330.889 90.4741 330.27 87.6854C330.251 87.5227 330.178 87.3709 330.063 87.254C329.948 87.1371 329.798 87.0617 329.636 87.0397C329.473 87.0177 329.308 87.0504 329.167 87.1326C329.025 87.2147 328.915 87.3417 328.853 87.4936C325.755 92.2299 316.547 93.2185 316.547 93.2185C284.935 90.0388 275.115 105.856 268.992 109.338C266.522 110.705 263.66 111.191 260.877 110.718C260.858 111.619 260.593 112.497 260.109 113.257C259.625 114.017 258.941 114.629 258.133 115.026L258.516 116.502C258.795 117.595 258.693 118.75 258.228 119.777Z" fill="#2F004F"/>
<path d="M276.916 131.581C272.966 131.822 269.04 130.815 265.694 128.704C262.347 126.592 259.749 123.483 258.265 119.814V119.814C257.687 118.412 257.237 116.96 256.923 115.476L257.159 115.41C257.498 115.327 257.826 115.201 258.133 115.034C258.941 114.636 259.625 114.024 260.109 113.264C260.593 112.504 260.859 111.626 260.877 110.725C260.901 110.228 260.846 109.73 260.715 109.25L258.804 102.182C258.804 102.182 265.2 105.576 271.198 102.108C277.196 98.6409 285.754 82.8679 318.753 85.9886C318.753 85.9886 326.005 85.3172 329.082 80.4924C329.146 80.3439 329.257 80.2206 329.398 80.1415C329.539 80.0624 329.702 80.0317 329.862 80.0544C330.022 80.077 330.171 80.1516 330.284 80.2668C330.398 80.3819 330.47 80.5311 330.491 80.6915C331.111 83.4802 332.468 85.3099 335.707 86.9329C348.787 93.4989 357.308 109.56 359.315 124.16C360.07 130.256 359.189 136.444 356.762 142.087C356.142 143.562 347.031 157.712 346.603 157.122C346.603 157.122 342.487 151.22 341.476 149.745L341.233 149.42L341.55 149.132C342.729 148.045 343.833 146.879 344.855 145.643C348.898 140.722 351.436 134.518 346.057 129.309C344.954 128.234 343.611 127.435 342.14 126.978C334.881 124.853 332.881 132.659 332.07 139.143C331.913 140.382 331.891 141.633 332.003 142.876L331.413 140.663C330.675 137.941 329.938 135.219 329.2 132.474C327.968 127.981 326.758 123.503 325.511 119.003C325.312 118.228 324.7 113.787 323.991 113.403C323.991 113.403 315.839 109.021 298.037 121.519C285.186 130.541 281.851 121.209 278.303 126.993C277.474 128.384 276.995 129.957 276.908 131.574C276.89 132.093 276.905 132.613 276.953 133.131C276.941 133.199 276.941 133.269 276.953 133.337C277.056 134.466 277.203 135.595 277.351 136.694C278.826 147.303 281.704 158.185 287.362 167.384C294.223 178.532 309.391 188.255 322.449 180.575C326.514 178.178 329.997 174.769 333.11 171.243" stroke="black" stroke-width="4.59" stroke-miterlimit="10"/>
<path d="M286.514 154.264C285.699 152.677 286.102 150.844 287.414 150.17C288.726 149.497 290.451 150.238 291.265 151.825C292.08 153.413 291.677 155.246 290.365 155.92C289.053 156.593 287.328 155.852 286.514 154.264Z" fill="black"/>
<path d="M307.096 150.451C306.281 148.863 306.685 147.03 307.997 146.356C309.309 145.683 311.033 146.424 311.848 148.012C312.663 149.599 312.26 151.432 310.948 152.106C309.636 152.779 307.911 152.038 307.096 150.451Z" fill="black"/>
<path d="M303.593 156.894C303.593 156.894 297.3 161.851 296.267 157.86C295.942 156.628 292.394 144.647 292.394 144.647C292.394 144.647 285.931 139.601 278.066 145.252" stroke="black" stroke-width="4.59" stroke-miterlimit="10"/>
<path d="M299.439 140.058C299.439 140.058 309.708 132.813 318.266 139.704" stroke="black" stroke-width="4.59" stroke-miterlimit="10"/>
<path d="M349.267 153.766L354.593 170.94L360.68 169.797C364.508 176.186 359.573 196.835 353.044 203.733C334.416 223.475 322.958 200.686 322.958 200.686L320.236 193.412L316.289 182.892" stroke="black" stroke-width="4.59" stroke-miterlimit="10"/>
<path d="M187.921 101.142C186.533 102.388 185.422 103.912 184.659 105.615C183.897 107.318 183.5 109.162 183.495 111.028V113.138C183.489 114.629 183.171 116.103 182.562 117.464C181.953 118.826 181.066 120.045 179.958 121.043C178.849 122.041 177.545 122.797 176.128 123.261C174.71 123.725 173.211 123.888 171.727 123.739C166.216 123.178 162.188 118.169 162.188 112.599V111.02C162.193 109.169 161.809 107.337 161.064 105.642C160.318 103.947 159.226 102.427 157.858 101.179" stroke="#6938EF" stroke-width="4.59" stroke-linejoin="round"/>
<path d="M187.921 101.142C186.533 102.388 185.422 103.912 184.659 105.615C183.897 107.318 183.5 109.162 183.495 111.028V113.138C183.489 114.629 183.171 116.103 182.562 117.464C181.953 118.826 181.066 120.045 179.958 121.043C178.849 122.041 177.545 122.797 176.128 123.261C174.71 123.725 173.211 123.888 171.727 123.739C166.216 123.178 162.188 118.169 162.188 112.599V111.02C162.193 109.169 161.809 107.337 161.064 105.642C160.318 103.947 159.226 102.427 157.858 101.179" stroke="#6938EF" stroke-width="4.59" stroke-linejoin="round"/>
<path d="M187.921 101.142C188.628 100.526 189.394 99.9828 190.208 99.5189C196.447 95.9374 201.425 90.5131 204.458 83.9901C207.491 77.4672 208.432 70.1654 207.151 63.0866C205.87 56.0079 202.429 49.4991 197.302 44.4533C192.174 39.4076 185.611 36.0722 178.513 34.9047C171.414 33.7373 164.128 34.7951 157.655 37.933C151.182 41.0709 145.838 46.1351 142.357 52.4306C138.876 58.7262 137.429 65.9447 138.214 73.0956C138.998 80.2464 141.977 86.9792 146.74 92.3702C146.814 92.4417 146.881 92.5208 146.939 92.6062C149.456 95.3707 152.391 97.7232 155.637 99.5779C156.437 100.022 157.181 100.562 157.85 101.186" stroke="#8700E0" stroke-width="4.59" stroke-linejoin="round"/>
<path d="M176.574 98.8697C178.825 94.7825 182.617 89.3675 185.287 85.509C188.192 81.4167 190.564 76.9718 192.348 72.2812C192.584 71.7749 192.675 71.2133 192.613 70.6582C192.576 70.3828 192.434 70.1324 192.217 69.9591C192 69.7859 191.724 69.7033 191.447 69.7286C190.953 69.8245 190.71 70.341 190.452 70.791C189.391 72.8986 187.88 74.7472 186.025 76.2061C184.985 77.0102 183.509 77.6815 182.425 76.9438C182.096 76.6555 181.831 76.3006 181.649 75.9025C181.467 75.5044 181.372 75.0723 181.37 74.6346C181.044 71.5278 181.856 68.4082 183.657 65.8554C184.395 64.8521 185.678 63.8783 186.719 64.5349C187.759 65.1915 187.456 66.8145 186.837 67.9064C185.735 69.9303 184.233 71.7087 182.422 73.1331C180.61 74.5574 178.528 75.598 176.302 76.1913C175.209 76.557 174.03 76.5699 172.93 76.2282C172.319 75.95 171.786 75.5272 171.376 74.9962C170.966 74.4652 170.691 73.8423 170.577 73.1813C170.357 71.8536 170.471 70.4922 170.909 69.2196C171.514 67.235 172.687 65.2062 174.656 64.5423C175.273 64.3026 175.958 64.3026 176.574 64.5423C176.984 64.7617 177.323 65.0918 177.554 65.4949C177.785 65.8979 177.898 66.3577 177.88 66.8219C177.832 67.7509 177.547 68.6523 177.054 69.4409C175.911 71.436 174.301 73.124 172.362 74.3601C170.423 75.5963 168.213 76.3436 165.921 76.538C164.391 76.7559 162.835 76.3841 161.569 75.4978C161.04 75.008 160.615 74.4177 160.317 73.7616C160.019 73.1054 159.856 72.3965 159.835 71.6763C159.667 69.5169 160.277 67.3688 161.554 65.6194C161.812 65.2726 162.203 64.8816 162.624 65.0218C163.044 65.162 163.162 65.6341 163.214 66.0546C163.406 67.7071 163.268 69.3812 162.807 70.9797C162.346 72.5781 161.571 74.0688 160.528 75.365C159.378 76.7741 157.629 77.9988 155.859 77.5783C155.189 77.3736 154.588 76.991 154.119 76.4713C153.649 75.9516 153.33 75.3142 153.195 74.6273C152.94 73.2497 153.078 71.828 153.594 70.5254C154.228 70.9149 154.771 71.4369 155.185 72.0558C155.599 72.6747 155.874 73.3757 155.991 74.1108C156.316 75.5863 156.294 77.0618 156.545 78.5373C157.932 86.8149 167.05 90.511 168.821 98.4565" stroke="#6938EF" stroke-width="4.59" stroke-linejoin="round"/>
<path d="M172.886 21.9668L173.232 1" stroke="#6938EF" stroke-width="4.59" stroke-linejoin="round"/>
<path d="M212.879 41.4728L227.391 26.3416" stroke="#6938EF" stroke-width="4.59" stroke-linejoin="round"/>
<path d="M132.752 42.4172L117.916 27.5958" stroke="#6938EF" stroke-width="4.59" stroke-linejoin="round"/>
<path d="M124.829 240.503C120.632 240.503 117.23 237.1 117.23 232.904C117.23 228.707 120.632 225.305 124.829 225.305C129.025 225.305 132.427 228.707 132.427 232.904C132.427 237.1 129.025 240.503 124.829 240.503Z" fill="#2F004F"/>
</svg>
