<svg width="38" height="38" viewBox="0 0 38 38" fill="none" xmlns="http://www.w3.org/2000/svg">
<path d="M26.9395 37.8672H11.2792C5.19354 37.8672 0.242188 32.9158 0.242188 26.8301V11.1699C0.242188 5.08417 5.19354 0.132812 11.2792 0.132812H26.9395C33.0256 0.132812 37.9766 5.08417 37.9766 11.1699V25.3506C37.9766 26.2563 37.2421 26.9912 36.3359 26.9912C35.4297 26.9912 34.6953 26.2563 34.6953 25.3506V11.1699C34.6953 6.89313 31.2162 3.41406 26.9395 3.41406H11.2792C7.0025 3.41406 3.52344 6.89313 3.52344 11.1699V26.8301C3.52344 31.1069 7.0025 34.5859 11.2792 34.5859H26.9395C29.3876 34.5859 31.6409 33.4657 33.123 31.5123C33.6708 30.7903 34.6996 30.6493 35.4216 31.1966C36.1437 31.7443 36.2847 32.7736 35.7374 33.4956C33.6293 36.274 30.4229 37.8672 26.9395 37.8672Z" fill="white"/>
<path d="M19.1094 29.2539C13.4552 29.2539 8.85547 24.6542 8.85547 19C8.85547 13.3458 13.4552 8.74609 19.1094 8.74609C24.7635 8.74609 29.3633 13.3458 29.3633 19C29.3633 24.6542 24.7635 29.2539 19.1094 29.2539ZM19.1094 12.0273C15.2646 12.0273 12.1367 15.1552 12.1367 19C12.1367 22.8448 15.2646 25.9727 19.1094 25.9727C22.9542 25.9727 26.082 22.8448 26.082 19C26.082 15.1552 22.9542 12.0273 19.1094 12.0273Z" fill="white"/>
<path d="M30.7883 8.78082C30.7883 9.58707 30.1351 10.2408 29.3289 10.2408C28.5228 10.2408 27.8691 9.58707 27.8691 8.78082C27.8691 7.97458 28.5228 7.32129 29.3289 7.32129C30.1351 7.32129 30.7883 7.97458 30.7883 8.78082Z" fill="white"/>
</svg>
