<svg width="43" height="38" viewBox="0 0 43 38" fill="none" xmlns="http://www.w3.org/2000/svg">
    <path d="M43 .442c0-.016-.008-.03-.01-.047-.002-.015.003-.031 0-.047-.003-.014-.013-.024-.018-.037a.372.372 0 0 0-.035-.082.41.41 0 0 0-.177-.172.409.409 0 0 0-.08-.031.397.397 0 0 0-.085-.017C42.581.007 42.568 0 42.553 0c-.018 0-.032.008-.049.01-.016.002-.031-.003-.047 0L28.519 3.04 14.577.01h-.007c-.015-.003-.033 0-.05-.002-.013 0-.024-.008-.039-.008-.013 0-.025.006-.037.008-.018 0-.037 0-.054.003h-.004L.35 3.06c-.013.003-.024.013-.037.017a.44.44 0 0 0-.152.082.389.389 0 0 0-.059.062.438.438 0 0 0-.046.068.459.459 0 0 0-.049.165c0 .014-.008.025-.008.04v34.063c0 .017.008.03.01.047s-.001.03.002.047c.004.016.013.028.018.043a.377.377 0 0 0 .08.141c.014.017.026.033.042.047.026.023.056.04.087.058.017.009.031.02.049.026a.448.448 0 0 0 .255.022l13.94-3.03 13.94 3.03c.032.008.064.011.095.011.005 0 .01-.003.014-.003a.432.432 0 0 0 .082-.008l14.036-3.05c.014-.002.024-.012.037-.017a.47.47 0 0 0 .152-.082.44.44 0 0 0 .056-.06.43.43 0 0 0 .049-.07.432.432 0 0 0 .03-.075.374.374 0 0 0 .018-.089c0-.014.008-.025.008-.04V.443zM.894 3.85 14.037.993v16.584a.446.446 0 0 0-.272.136.44.44 0 0 0 .032.625c.082.073.158.151.24.225v15.589L.894 37.008V3.85zM14.93 19.413c.275.273.544.544.785.792a.448.448 0 0 0 .63.011.44.44 0 0 0 .012-.625 48.965 48.965 0 0 0-1.427-1.407V.993l13.144 2.856v21.217c-.259.11-.517.208-.776.284a.44.44 0 0 0 .125.866.446.446 0 0 0 .126-.019c.174-.051.35-.113.525-.178v10.988l-13.144-2.856V19.413zm14.036 6.215a9.751 9.751 0 0 0 1.137-.678.44.44 0 0 0 .11-.616.448.448 0 0 0-.62-.11 9.369 9.369 0 0 1-.627.398V3.85L42.108.993v33.159l-13.143 2.855V25.628z" fill="#99A3AD"/>
    <path d="M5.452 26.484a26.968 26.968 0 0 1-.167-.966.445.445 0 0 0-.508-.37.442.442 0 0 0-.373.504c.055.352.105.634.147.857a2.365 2.365 0 0 0-1.848 2.297 2.37 2.37 0 0 0 2.378 2.358 2.37 2.37 0 0 0 2.378-2.358c-.001-1.174-.873-2.143-2.007-2.322zM5.08 30.28c-.82 0-1.487-.661-1.487-1.474S4.26 27.33 5.08 27.33c.82 0 1.486.662 1.486 1.475 0 .813-.667 1.474-1.486 1.474zM38.218 6.8l1.051-1.043a.44.44 0 0 0 0-.625.449.449 0 0 0-.63 0l-1.051 1.043-1.05-1.043a.449.449 0 0 0-.631 0 .44.44 0 0 0 0 .625L36.958 6.8l-1.051 1.043a.44.44 0 0 0 .316.755.45.45 0 0 0 .315-.13l.66-.656c.005.106.01.204.013.323.006.24.204.432.445.432h.012a.444.444 0 0 0 .434-.453l-.006-.185.542.539a.45.45 0 0 0 .631 0 .44.44 0 0 0 0-.626L38.22 6.8zM12.178 15.992c-.9-.55-1.764-.9-2.644-1.073a.441.441 0 1 0-.173.867c.773.152 1.542.466 2.35.959a.448.448 0 0 0 .613-.146.44.44 0 0 0-.146-.607zM4.551 23.348l.028-.001a.445.445 0 0 0 .418-.468 21.743 21.743 0 0 1-.042-1.335c0-.433.014-.869.048-1.3a.443.443 0 0 0-.41-.475c-.244-.032-.46.164-.479.406-.036.453-.05.913-.05 1.369 0 .47.015.938.043 1.388.014.235.21.416.444.416zM4.94 17.99a.447.447 0 0 0 .577-.254c.34-.877.834-1.479 1.47-1.788a.44.44 0 0 0 .202-.592.448.448 0 0 0-.596-.202c-.844.411-1.486 1.174-1.908 2.265a.439.439 0 0 0 .255.57zM18.24 21.53a.45.45 0 0 0-.63-.004.44.44 0 0 0-.003.626 27.948 27.948 0 0 0 2.017 1.868.444.444 0 0 0 .628-.057.44.44 0 0 0-.057-.623 27.215 27.215 0 0 1-1.954-1.81zM37.629 10.418a.443.443 0 0 0-.478.41c-.07.942-.19 1.822-.357 2.612a.442.442 0 0 0 .438.533c.206 0 .39-.143.435-.351.175-.828.301-1.746.374-2.729a.446.446 0 0 0-.412-.475zM36.584 15.69a.447.447 0 0 0-.594.209c-.051.105-.104.209-.16.311-.306.561-.686 1.257-1.138 2.015a.44.44 0 0 0 .157.606.45.45 0 0 0 .611-.155c.459-.77.845-1.476 1.155-2.045.062-.115.123-.232.18-.35a.44.44 0 0 0-.211-.59zM33.236 20.46a20.156 20.156 0 0 1-1.677 2.046.441.441 0 0 0 .326.745.446.446 0 0 0 .325-.14c.585-.62 1.174-1.339 1.75-2.137a.44.44 0 0 0-.102-.616.446.446 0 0 0-.622.101zM24.791 25.553a7.526 7.526 0 0 1-2.417-.754.446.446 0 0 0-.631.222.44.44 0 0 0 .21.558l.017.01c.904.448 1.816.731 2.712.842a.445.445 0 0 0 .498-.384.443.443 0 0 0-.389-.494z" fill="#99A3AD"/>
</svg>
