<svg width="262" height="96" viewBox="0 0 262 96" fill="none" xmlns="http://www.w3.org/2000/svg">
<rect width="262" height="96" fill="white"/>
<path d="M13.12 19.984V31.696H29.12V38.608H13.12V50.768H31.04V58H4.096V12.816H31.04V19.984H13.12ZM82.841 22.032C87.1503 22.032 90.5423 23.376 93.017 26.064C95.5343 28.7093 96.793 32.4853 96.793 37.392V58H87.833V38.416C87.833 35.6853 87.129 33.5947 85.721 32.144C84.3557 30.6507 82.457 29.904 80.025 29.904C77.5077 29.904 75.5023 30.6933 74.009 32.272C72.5157 33.8507 71.769 36.1547 71.769 39.184V58H62.809V38.416C62.809 35.6853 62.105 33.5947 60.697 32.144C59.3317 30.6507 57.433 29.904 55.001 29.904C52.4837 29.904 50.4783 30.6933 48.985 32.272C47.4917 33.8507 46.745 36.1547 46.745 39.184V58H37.721V22.544H46.745V29.264C47.6837 26.96 49.1557 25.1893 51.161 23.952C53.209 22.672 55.577 22.032 58.265 22.032C61.1237 22.032 63.5983 22.7147 65.689 24.08C67.8223 25.4453 69.4223 27.408 70.489 29.968C71.5983 27.536 73.241 25.616 75.417 24.208C77.6357 22.7573 80.1103 22.032 82.841 22.032ZM125.905 22.096C128.892 22.096 131.58 22.8213 133.969 24.272C136.358 25.7227 138.214 27.8347 139.537 30.608C140.902 33.3387 141.585 36.56 141.585 40.272C141.585 43.984 140.902 47.2267 139.537 50C138.214 52.7307 136.358 54.8213 133.969 56.272C131.58 57.7227 128.892 58.448 125.905 58.448C122.918 58.448 120.358 57.744 118.225 56.336C116.134 54.8853 114.641 52.9653 113.745 50.576V74.896H104.721V22.544H113.745V29.904C114.641 27.5147 116.134 25.616 118.225 24.208C120.358 22.8 122.918 22.096 125.905 22.096ZM123.089 29.968C120.358 29.968 118.097 30.9067 116.305 32.784C114.556 34.6187 113.681 37.1147 113.681 40.272C113.681 43.3867 114.556 45.8827 116.305 47.76C118.097 49.5947 120.358 50.512 123.089 50.512C125.905 50.512 128.166 49.616 129.873 47.824C131.58 45.9893 132.433 43.472 132.433 40.272C132.433 37.072 131.58 34.5547 129.873 32.72C128.166 30.8853 125.905 29.968 123.089 29.968ZM156.995 29.328C158.318 27.0667 160.067 25.296 162.243 24.016C164.419 22.6933 166.851 22.032 169.539 22.032V31.696H166.915C160.302 31.696 156.995 34.768 156.995 40.912V58H147.971V22.544H156.995V29.328ZM173.51 12.368C173.51 10.9173 174.022 9.744 175.046 8.848C176.07 7.90933 177.414 7.44 179.078 7.44C180.742 7.44 182.086 7.90933 183.11 8.848C184.134 9.744 184.646 10.9173 184.646 12.368C184.646 13.776 184.134 14.9493 183.11 15.888C182.086 16.784 180.742 17.232 179.078 17.232C177.414 17.232 176.07 16.784 175.046 15.888C174.022 14.9493 173.51 13.776 173.51 12.368ZM183.558 22.544V58H174.534V22.544H183.558ZM203.945 22.096C208.254 22.096 211.71 23.184 214.313 25.36C216.916 27.536 218.537 30.4373 219.177 34.064H210.729C210.388 32.3573 209.62 30.992 208.425 29.968C207.23 28.944 205.673 28.432 203.753 28.432C202.217 28.432 201.022 28.7947 200.169 29.52C199.316 30.2453 198.889 31.2267 198.889 32.464C198.889 33.4453 199.23 34.2347 199.913 34.832C200.596 35.4293 201.449 35.8987 202.473 36.24C203.497 36.5813 204.969 36.9867 206.889 37.456C209.577 38.0533 211.753 38.6933 213.417 39.376C215.124 40.016 216.574 41.0613 217.769 42.512C219.006 43.92 219.625 45.84 219.625 48.272C219.625 51.3013 218.43 53.7547 216.041 55.632C213.694 57.5093 210.516 58.448 206.505 58.448C201.897 58.448 198.206 57.424 195.433 55.376C192.66 53.2853 190.974 50.32 190.377 46.48H199.017C199.23 48.2293 199.998 49.616 201.321 50.64C202.644 51.6213 204.372 52.112 206.505 52.112C208.041 52.112 209.214 51.7493 210.025 51.024C210.836 50.256 211.241 49.2747 211.241 48.08C211.241 47.056 210.878 46.224 210.153 45.584C209.47 44.944 208.596 44.4533 207.529 44.112C206.505 43.7707 205.033 43.3653 203.113 42.896C200.468 42.2987 198.313 41.7013 196.649 41.104C195.028 40.464 193.62 39.4613 192.425 38.096C191.273 36.7307 190.697 34.8533 190.697 32.464C190.697 29.392 191.87 26.896 194.217 24.976C196.564 23.056 199.806 22.096 203.945 22.096ZM259.69 38.928C259.69 39.824 259.583 40.848 259.37 42H233.386C233.514 45.1573 234.367 47.4827 235.946 48.976C237.525 50.4693 239.487 51.216 241.834 51.216C243.925 51.216 245.653 50.704 247.018 49.68C248.426 48.656 249.322 47.2693 249.706 45.52H259.242C258.773 47.9947 257.77 50.2133 256.234 52.176C254.698 54.1387 252.714 55.6747 250.282 56.784C247.893 57.8933 245.226 58.448 242.282 58.448C238.826 58.448 235.754 57.7227 233.066 56.272C230.378 54.7787 228.287 52.6667 226.794 49.936C225.301 47.2053 224.554 43.984 224.554 40.272C224.554 36.56 225.301 33.3387 226.794 30.608C228.287 27.8347 230.378 25.7227 233.066 24.272C235.754 22.8213 238.826 22.096 242.282 22.096C245.781 22.096 248.831 22.8213 251.434 24.272C254.079 25.7227 256.106 27.728 257.514 30.288C258.965 32.8053 259.69 35.6853 259.69 38.928ZM250.602 38.032C250.73 35.1307 249.962 32.9333 248.298 31.44C246.677 29.9467 244.671 29.2 242.282 29.2C239.85 29.2 237.802 29.9467 236.138 31.44C234.474 32.9333 233.557 35.1307 233.386 38.032H250.602Z" fill="black"/>
</svg>
