<svg xmlns="http://www.w3.org/2000/svg" width="17.726" height="20.955" viewBox="0 0 17.726 20.955"><path d="M54.581,2.6a8.863,8.863,0,0,0-15.13,6.267c0,4.789,4.528,8.772,6.961,10.912.338.3.63.554.863.771a1.527,1.527,0,0,0,2.079,0c.233-.217.525-.474.863-.771,2.433-2.14,6.961-6.123,6.961-10.912A8.805,8.805,0,0,0,54.581,2.6ZM49.405,18.854c-.345.3-.644.566-.89.8a.3.3,0,0,1-.4,0c-.246-.23-.544-.492-.89-.8-2.287-2.012-6.544-5.757-6.544-9.991a7.635,7.635,0,0,1,15.271,0C55.949,13.1,51.692,16.842,49.405,18.854Z" transform="translate(-39.451)"/><g transform="translate(4.957 4.623)"><path d="M164.476,112.938a3.906,3.906,0,1,0,3.906,3.906A3.91,3.91,0,0,0,164.476,112.938Zm0,6.584a2.678,2.678,0,1,1,2.678-2.678A2.681,2.681,0,0,1,164.476,119.522Z" transform="translate(-160.57 -112.938)"/></g></svg>