<?xml version="1.0" encoding="UTF-8"?>
<svg width="100pt" height="100pt" version="1.1" viewBox="0 0 100 100" xmlns="http://www.w3.org/2000/svg">
 <g fill-rule="evenodd">
  <path d="m56.984 93.016c0 3.8555-3.125 6.9844-6.9844 6.9844s-6.9844-3.1289-6.9844-6.9844c0-3.8594 3.125-6.9844 6.9844-6.9844s6.9844 3.125 6.9844 6.9844"/>
  <path d="m13.602 81.617c-7.3516 0-7.3516-11.398 0-11.398 6.25 0 6.6172-21.324 6.6172-28.676 0-18.016 10.66-28.309 22.793-30.883-2.207-5.1484 1.4688-10.66 6.9844-10.66s9.1914 5.5156 6.9844 10.66c12.133 2.5742 22.426 12.867 22.426 30.883 0 7.3516 0.36719 28.676 6.9844 28.676 7.3516 0 7.3516 11.398 0 11.398h-72.793zm17.281-38.234c0 3.3086-5.1484 3.6758-5.1484 0-0.36719-7.7188 1.8398-18.016 9.1914-22.059 3.3086-1.8398 5.8828 2.9414 2.5742 4.4102-5.5156 2.9414-6.9844 12.133-6.6172 17.648z"/>
 </g>
</svg>
