<svg height='100px' width='100px' fill="#000000"
    xmlns="http://www.w3.org/2000/svg"
    xmlns:xlink="http://www.w3.org/1999/xlink" version="1.1" x="0px" y="0px"
    viewBox="0 0 48 48" style="enable-background:new 0 0 48 48;"
    xml:space="preserve">
    <path
        d="M20.9,38c3.9,0,7.4-1.3,10.3-3.4l9.3,9.3c0.9,0.9,2.3,0.9,3.2,0c0.9-0.9,0.9-2.3,0-3.2l-9.2-9.2c2.3-2.9,3.7-6.6,3.7-10.6  c0-9.5-7.7-17.2-17.2-17.2c-9.5,0-17.2,7.7-17.2,17.2C3.7,30.3,11.4,38,20.9,38z M20.9,8.1c7,0,12.7,5.7,12.7,12.7  c0,3.5-1.4,6.7-3.7,9c-0.1,0-0.1,0.1-0.2,0.1c0,0,0,0,0,0.1c-2.3,2.2-5.4,3.5-8.8,3.5c-7,0-12.7-5.7-12.7-12.7  C8.2,13.8,13.9,8.1,20.9,8.1z">
    </path>
</svg>