<svg width="70" height="48" viewBox="0 0 70 48" fill="none" xmlns="http://www.w3.org/2000/svg">
<rect width="70" height="48" rx="4" fill="#253B80"/>
<path fill-rule="evenodd" clip-rule="evenodd" d="M18.2471 18.1272H14.8182C14.5836 18.1272 14.384 18.2977 14.3475 18.5293L12.9606 27.322C12.9331 27.4956 13.0674 27.6519 13.2434 27.6519H14.8804C15.1151 27.6519 15.3146 27.4814 15.3512 27.2494L15.7252 24.8779C15.7613 24.6456 15.9614 24.4753 16.1955 24.4753H17.281C19.5397 24.4753 20.8432 23.3823 21.1839 21.2163C21.3372 20.2688 21.1903 19.5242 20.7465 19.0026C20.2592 18.4302 19.3947 18.1272 18.2471 18.1272ZM18.6427 21.3386C18.4553 22.569 17.5152 22.569 16.6062 22.569H16.0887L16.4517 20.2711C16.4733 20.1323 16.5936 20.03 16.734 20.03H16.9712C17.5904 20.03 18.1745 20.03 18.4764 20.3829C18.6562 20.5936 18.7114 20.9064 18.6427 21.3386ZM28.497 21.2992H26.8549C26.715 21.2992 26.5941 21.4015 26.5726 21.5405L26.4999 21.9997L26.3851 21.8333C26.0296 21.3173 25.2371 21.1449 24.4459 21.1449C22.6312 21.1449 21.0815 22.5192 20.7797 24.447C20.6228 25.4085 20.8458 26.328 21.3913 26.9693C21.8918 27.5589 22.6078 27.8046 23.4595 27.8046C24.9215 27.8046 25.7324 26.8645 25.7324 26.8645L25.6591 27.3209C25.6315 27.4953 25.7658 27.6517 25.9408 27.6517H27.4199C27.6552 27.6517 27.8536 27.4812 27.8907 27.2492L28.7782 21.6291C28.8063 21.4563 28.6724 21.2992 28.497 21.2992ZM26.2081 24.495C26.0496 25.4331 25.305 26.0628 24.3556 26.0628C23.8788 26.0628 23.4976 25.9099 23.253 25.6201C23.0103 25.3324 22.918 24.9227 22.9952 24.4665C23.1433 23.5363 23.9004 22.8862 24.8354 22.8862C25.3016 22.8862 25.6807 23.041 25.9303 23.3333C26.1805 23.6287 26.2798 24.0408 26.2081 24.495ZM35.592 21.2989H37.2421C37.4732 21.2989 37.608 21.5581 37.4767 21.7477L31.9887 29.6694C31.8998 29.7977 31.7534 29.874 31.597 29.874H29.949C29.7169 29.874 29.5814 29.6128 29.7158 29.4227L31.4246 27.0106L29.6072 21.6769C29.5443 21.4915 29.6812 21.2989 29.8784 21.2989H31.4998C31.7105 21.2989 31.8963 21.4372 31.9571 21.6389L32.9216 24.8603L35.1975 21.508C35.2866 21.3771 35.4347 21.2989 35.592 21.2989Z" fill="white"/>
<path fill-rule="evenodd" clip-rule="evenodd" d="M53.483 27.3213L54.8902 18.3677C54.9118 18.2288 55.0322 18.1264 55.1721 18.126H56.7563C56.9313 18.126 57.0656 18.2828 57.038 18.4564L55.6503 27.2486C55.6141 27.4807 55.4146 27.6512 55.1795 27.6512H53.7647C53.5897 27.6512 53.4554 27.4948 53.483 27.3213ZM42.7058 18.1264H39.2762C39.0421 18.1264 38.8426 18.297 38.8059 18.5285L37.4191 27.3213C37.3915 27.4948 37.5259 27.6512 37.701 27.6512H39.4607C39.6243 27.6512 39.7642 27.5319 39.7897 27.3695L40.1832 24.8771C40.2194 24.6449 40.4194 24.4746 40.6535 24.4746H41.7385C43.9977 24.4746 45.3009 23.3815 45.6418 21.2156C45.7956 20.268 45.6478 19.5234 45.2042 19.0019C44.7172 18.4295 43.8533 18.1264 42.7058 18.1264ZM43.1014 21.3379C42.9144 22.5683 41.9742 22.5683 41.0647 22.5683H40.5477L40.9113 20.2703C40.9329 20.1316 41.0521 20.0293 41.193 20.0293H41.4301C42.0489 20.0293 42.6336 20.0293 42.9352 20.3822C43.1153 20.5928 43.17 20.9056 43.1014 21.3379ZM52.9547 21.2984H51.3138C51.1727 21.2984 51.053 21.4007 51.0319 21.5397L50.9593 21.9989L50.844 21.8325C50.4885 21.3165 49.6964 21.1441 48.9052 21.1441C47.0905 21.1441 45.5413 22.5184 45.2394 24.4463C45.0831 25.4078 45.3051 26.3273 45.8506 26.9686C46.352 27.5581 47.0671 27.8039 47.9188 27.8039C49.3808 27.8039 50.1915 26.8637 50.1915 26.8637L50.1184 27.3201C50.0908 27.4946 50.2251 27.651 50.4013 27.651H51.8797C52.1138 27.651 52.3133 27.4804 52.35 27.2484L53.238 21.6284C53.2651 21.4555 53.1308 21.2984 52.9547 21.2984ZM50.666 24.4943C50.5084 25.4324 49.763 26.0621 48.8133 26.0621C48.3374 26.0621 47.9555 25.9092 47.7107 25.6194C47.468 25.3317 47.3768 24.9219 47.4532 24.4658C47.6019 23.5356 48.3581 22.8855 49.2931 22.8855C49.7595 22.8855 50.1384 23.0402 50.3883 23.3326C50.6393 23.6279 50.7386 24.04 50.666 24.4943Z" fill="#179BD7"/>
</svg>
