<svg width="24" height="24" viewBox="0 0 24 24" fill="none" xmlns="http://www.w3.org/2000/svg">
<rect width="24" height="24" rx="12" fill="#28B0A6"/>
<path d="M11.6974 9.27766C11.6974 7.94332 10.6117 6.85742 9.2773 6.85742C7.94293 6.85742 6.85742 7.94332 6.85742 9.27766C6.85742 10.6117 7.94293 11.6972 9.2773 11.6972C10.6117 11.6972 11.6974 10.6117 11.6974 9.27766ZM8.05954 9.27766C8.05954 8.6058 8.6058 8.05954 9.2773 8.05954C9.94876 8.05954 10.4952 8.6058 10.4952 9.27766C10.4952 9.94876 9.94876 10.495 9.2773 10.495C8.6058 10.495 8.05954 9.94879 8.05954 9.27766Z" fill="white"/>
<path d="M14.6872 12.6676C13.3528 12.6676 12.2673 13.7531 12.2673 15.0871C12.2673 16.4215 13.3528 17.5074 14.6872 17.5074C16.0216 17.5074 17.1071 16.4215 17.1071 15.0871C17.1071 13.7531 16.0216 12.6676 14.6872 12.6676ZM14.6872 16.3052C14.0157 16.3052 13.4694 15.759 13.4694 15.0871C13.4694 14.416 14.0157 13.8697 14.6872 13.8697C15.3587 13.8697 15.9049 14.416 15.9049 15.0871C15.9049 15.759 15.3586 16.3052 14.6872 16.3052Z" fill="white"/>
<path d="M14.7615 7.16767C14.4475 6.99352 14.0505 7.10588 13.8754 7.42011L8.93541 16.2904C8.76031 16.6046 8.87324 17.0014 9.18761 17.1767C9.28798 17.2323 9.39679 17.2589 9.504 17.2589C9.73272 17.2589 9.95462 17.1384 10.0738 16.9243L15.0137 8.05402C15.1888 7.73976 15.076 7.343 14.7615 7.16767Z" fill="white"/>
</svg>
