<svg width="19" height="19" viewBox="0 0 19 19" fill="none" xmlns="http://www.w3.org/2000/svg">
<path fill-rule="evenodd" clip-rule="evenodd" d="M10.0809 6.05603H8.06848V8.06848H10.0809V6.05603ZM14.1058 6.05603H12.0934V8.06848H14.1058V6.05603ZM17.1245 12.5965C15.8718 12.5965 14.6643 12.3953 13.5323 12.0229C13.1851 11.9123 12.7877 11.9928 12.511 12.2695L10.2973 14.4882C7.44462 13.0392 5.12024 10.7098 3.66624 7.86221L5.87994 5.64348C6.15665 5.36677 6.23715 4.96931 6.12647 4.62216C5.75416 3.49016 5.55292 2.27765 5.55292 1.0249C5.55292 0.466447 5.10515 0.0186768 4.54669 0.0186768H1.0249C0.466447 0.0186768 0.0186768 0.466447 0.0186768 1.0249C0.0186768 10.4734 7.67605 18.1307 17.1245 18.1307C17.683 18.1307 18.1307 17.683 18.1307 17.1245V13.6027C18.1307 13.0443 17.683 12.5965 17.1245 12.5965ZM16.1183 6.05603V8.06848H18.1307V6.05603H16.1183Z" fill="#4D4D4D"/>
</svg>
