<svg width="33" height="26" viewBox="0 0 33 26" fill="none" xmlns="http://www.w3.org/2000/svg">
<path d="M32.1399 12.0001C32.1399 9.79406 30.3459 8.00007 28.1399 8.00007C27.2579 8.00007 26.4199 8.28807 25.7359 8.81006C23.5039 7.26007 20.5799 6.33607 17.4699 6.10208L19.1479 2.16609L24.0299 3.30609C24.1859 4.81608 25.4499 6.00008 26.9999 6.00008C28.6539 6.00008 29.9999 4.65408 29.9999 3.00009C29.9999 1.34609 28.6539 9.81643e-05 26.9999 9.81643e-05C25.9519 9.81643e-05 25.0299 0.542096 24.4939 1.36009L18.7879 0.0260981C18.3039 -0.0839015 17.8299 0.162098 17.6379 0.608096L15.3179 6.04808C11.96 6.16407 8.75997 7.11007 6.34398 8.75806C5.68598 8.27007 4.86998 8.00007 3.99998 8.00007C1.79399 8.00007 0 9.79406 0 12.0001C0 13.462 0.797997 14.784 2.02199 15.462C2.00599 15.638 1.99999 15.818 1.99999 16C1.99999 21.514 8.27997 26 15.9999 26C23.7179 26 29.9999 21.514 29.9999 16C29.9999 15.844 29.9939 15.69 29.9839 15.536C31.2879 14.872 32.1399 13.518 32.1399 12.0001ZM26.9999 2.00009C27.5499 2.00009 27.9999 2.44809 27.9999 3.00009C27.9999 3.55208 27.5499 4.00008 26.9999 4.00008C26.4499 4.00008 25.9999 3.55208 25.9999 3.00009C25.9999 2.44809 26.4499 2.00009 26.9999 2.00009ZM8.99997 15C8.99997 13.898 9.89796 13 11 13C12.102 13 13 13.898 13 15C13 16.104 12.102 17 11 17C9.89796 17 8.99997 16.104 8.99997 15ZM20.6179 21.634C19.2379 22.632 17.6179 23.132 15.9999 23.132C14.3819 23.132 12.762 22.632 11.382 21.634C10.934 21.31 10.834 20.684 11.158 20.238C11.482 19.792 12.108 19.692 12.554 20.014C14.6159 21.504 17.3839 21.508 19.4459 20.014C19.8919 19.692 20.5159 19.788 20.8419 20.238C21.1659 20.686 21.0639 21.31 20.6179 21.634ZM20.9999 17C19.8959 17 18.9999 16.104 18.9999 15C18.9999 13.898 19.8959 13 20.9999 13C22.1039 13 22.9999 13.898 22.9999 15C22.9999 16.104 22.1039 17 20.9999 17Z" fill="white"/>
</svg>
