<svg xmlns="http://www.w3.org/2000/svg" width="16" height="16"
    viewBox="0 0 16 16">
    <g transform="translate(0.092 -0.208)">
        <path d="M0,0H16V15.609H0Z" transform="translate(-0.092 0.208)"
            fill="none" />
        <path
            d="M14.661,13.309a2.225,2.225,0,0,0-1.524.618L7.594,10.594a2.712,2.712,0,0,0,.07-.562,2.712,2.712,0,0,0-.07-.562l5.481-3.3a2.283,2.283,0,0,0,1.586.651,2.369,2.369,0,0,0,2.332-2.41,2.333,2.333,0,1,0-4.664,0,2.712,2.712,0,0,0,.07.562l-5.481,3.3a2.283,2.283,0,0,0-1.586-.651,2.411,2.411,0,0,0,0,4.819,2.283,2.283,0,0,0,1.586-.651l5.535,3.341a2.338,2.338,0,0,0-.062.522,2.271,2.271,0,1,0,2.27-2.345Z"
            transform="translate(-2.092 -1.792)" />
    </g>
</svg>