<svg xmlns="http://www.w3.org/2000/svg" width="88" height="88" viewBox="0 0 88 88"><g fill="none" stroke="#fff" stroke-width="2"><circle cx="44" cy="44" r="44" stroke="none"/><circle cx="44" cy="44" r="43" fill="none"/></g><rect width="40" height="40" transform="translate(24 24)" fill="#fff" opacity="0"/><g transform="translate(24.001 26)"><path d="M23.8,46.959a.65.65,0,0,0,.65.65H33.56a.65.65,0,0,0,.65-.65v-.65h4.553a.65.65,0,0,0,.565-.328l2.6-4.553a.65.65,0,0,0,.086-.323V32.65a.65.65,0,0,0-.65-.65H16.65a.65.65,0,0,0-.65.65v8.455a.65.65,0,0,0,.086.323l2.6,4.553a.65.65,0,0,0,.565.328H23.8Zm1.951-.65a.65.65,0,0,0,.609-.422l1.793-4.781h1.7l1.793,4.781a.65.65,0,0,0,.609.422ZM17.3,40.933V33.3H40.714v7.632l-2.329,4.075H32.71l-1.793-4.781a.65.65,0,0,0-.609-.422h-2.6a.65.65,0,0,0-.609.422L25.3,45.008H19.629Z" transform="translate(-16 -32)" fill="#fff"/><path d="M60.557,67.9l1.793,4.781a.65.65,0,0,0,.609.422h3.9a.65.65,0,0,0,.582-.359l1.3-2.6a.65.65,0,0,0,.069-.291v-5.2a.65.65,0,0,0-.65-.65H48.65a.65.65,0,0,0-.65.65v5.2a.65.65,0,0,0,.069.291l1.3,2.6a.65.65,0,0,0,.582.359h3.9a.65.65,0,0,0,.609-.422L56.255,67.9ZM55.2,67.024,53.4,71.8h-3.05L49.3,69.7V65.3H67.511v4.4l-1.052,2.1h-3.05l-1.793-4.781a.65.65,0,0,0-.609-.422H55.8a.65.65,0,0,0-.609.422Z" transform="translate(-45.398 -61.398)" fill="#fff"/><path d="M97.169,157.008H78.959a5.862,5.862,0,0,0-5.706,4.553h-2.1a.65.65,0,0,0-.65.65H69.2a.65.65,0,0,0-.65-.65h-1.3v-5.2a1.953,1.953,0,0,1,1.951-1.951H87.414v.65a.65.65,0,0,0,.65.65h7.8a.65.65,0,0,0,.65-.65v-.65h1.3a.65.65,0,1,0,0-1.3h-1.3v-.65a.65.65,0,0,0-.65-.65h-.65v-1.366a3.257,3.257,0,0,0,2.6-3.187v-2.6a.65.65,0,0,0-.65-.65h-2.6a.65.65,0,0,0-.65.65v1.3a.65.65,0,0,1-1.3,0v-1.3a.65.65,0,0,0-.65-.65h-2.6a.65.65,0,0,0-.65.65v2.6a3.257,3.257,0,0,0,2.6,3.187V151.8H88.064a.65.65,0,0,0-.65.65v.65H69.2a3.256,3.256,0,0,0-3.252,3.252v5.2h-1.3a.65.65,0,0,0-.65.65v3.9a.65.65,0,0,0,.65.65h3.9a.65.65,0,0,0,.65-.65h1.3a.65.65,0,0,0,.65.65h2.1a5.862,5.862,0,0,0,5.706,4.553H97.169a1.953,1.953,0,0,0,1.951-1.951V158.959a1.953,1.953,0,0,0-1.951-1.951Zm-1.951-2.6h-3.9v-1.3h3.9Zm-5.2-7.154V145.3h1.3v.65a1.951,1.951,0,0,0,3.9,0v-.65h1.3v1.951a1.953,1.953,0,0,1-1.951,1.951h-2.6A1.953,1.953,0,0,1,90.015,147.252Zm2.6,3.252h1.3v1.3h-1.3Zm-3.9,2.6h1.3v1.3h-1.3ZM67.9,165.462H65.3v-2.6h2.6Zm1.3-.65v-1.3h1.3v1.3Zm14.308-6.5h5.2v11.707h-5.2Zm-1.3,11.707h-1.3V158.308h1.3Zm7.8-11.707h1.3v11.707h-1.3ZM71.8,165.462v-2.6h1.3v2.6Zm2.6,0v-2.6a4.558,4.558,0,0,1,4.553-4.553h.65v11.707h-.65A4.558,4.558,0,0,1,74.406,165.462Zm23.414,3.9a.651.651,0,0,1-.65.65H92.617V158.308h4.553a.651.651,0,0,1,.65.65Z" transform="translate(-60.098 -134.895)" fill="#fff"/></g></svg>