<svg width="33" height="27" viewBox="0 0 33 27" fill="none" xmlns="http://www.w3.org/2000/svg">
<path d="M10.3086 26.6398C22.6788 26.6398 29.4435 16.3913 29.4435 7.50488C29.4435 7.2136 29.4376 6.92419 29.4242 6.63589C30.7372 5.68628 31.8785 4.50186 32.779 3.15361C31.5738 3.68897 30.2772 4.04972 28.9167 4.21207C30.3055 3.37986 31.3714 2.06245 31.8744 0.492023C30.5744 1.26256 29.1359 1.82244 27.6041 2.12449C26.3766 0.817476 24.629 -0.000244141 22.6952 -0.000244141C18.9807 -0.000244141 15.9688 3.01169 15.9688 6.72431C15.9688 7.25224 16.0278 7.76531 16.143 8.25795C10.5542 7.97671 5.59773 5.30026 2.28115 1.23135C1.70306 2.22517 1.37055 3.37986 1.37055 4.61146C1.37055 6.94462 2.55793 9.00471 4.36316 10.2096C3.26011 10.1757 2.22356 9.87222 1.31742 9.36806C1.31593 9.3963 1.31593 9.42453 1.31593 9.45388C1.31593 12.7114 3.63423 15.4306 6.71118 16.0469C6.14647 16.2007 5.55203 16.2836 4.93828 16.2836C4.50508 16.2836 4.08377 16.2405 3.67398 16.1625C4.53034 18.8341 7.01286 20.7786 9.9568 20.8336C7.65448 22.6373 4.75512 23.7122 1.60423 23.7122C1.06181 23.7122 0.526447 23.6813 0 23.6189C2.97627 25.5263 6.51019 26.6398 10.3086 26.6398Z" fill="white"/>
</svg>
