<svg width="30" height="30" viewBox="0 0 30 30" fill="none" xmlns="http://www.w3.org/2000/svg">
<path fill-rule="evenodd" clip-rule="evenodd" d="M14.6146 26.6768C12.48 26.6768 10.3793 26.1086 8.54169 25.0347C8.24583 24.8617 7.88957 24.8156 7.5589 24.9057L3.56322 26.0021L4.95551 22.936C5.14491 22.5193 5.09577 22.0331 4.82857 21.6614C3.33902 19.5986 2.55278 17.1611 2.55278 14.615C2.55278 7.96372 7.96328 2.55322 14.6146 2.55322C21.2658 2.55322 26.6763 7.96372 26.6763 14.615C26.6763 21.2663 21.2658 26.6768 14.6146 26.6768ZM14.6146 0C6.55563 0 0.000581808 6.55607 0.000581808 14.615C0.000581808 17.4498 0.804223 20.1719 2.33472 22.5347L0.114218 27.4251C-0.0905315 27.8766 -0.015798 28.4049 0.304635 28.7816C0.551357 29.0693 0.908644 29.23 1.27617 29.23C2.09926 29.23 6.58839 27.8193 7.73089 27.505C9.84288 28.6352 12.2108 29.23 14.6146 29.23C22.6725 29.23 29.2296 22.6729 29.2296 14.615C29.2296 6.55607 22.6725 0.00102375 14.6146 0Z" fill="white"/>
<path fill-rule="evenodd" clip-rule="evenodd" d="M18.1045 16.3233C17.5517 16.5496 17.1985 17.4157 16.8402 17.8579C16.6559 18.0842 16.4369 18.12 16.1543 18.0064C14.0781 17.1792 12.4862 15.793 11.3406 13.8827C11.1461 13.5869 11.1809 13.3524 11.4154 13.077C11.7614 12.6696 12.1965 12.2068 12.2897 11.6571C12.4975 10.4429 10.9097 6.67452 8.812 8.38213C2.77701 13.3002 18.8795 26.3438 21.7859 19.2891C22.608 17.2887 19.0218 15.9476 18.1045 16.3233Z" fill="white"/>
</svg>
